<?xml version="1.0" encoding="utf-8"?>
<!-- Generator: Adobe Illustrator 16.0.0, SVG Export Plug-In . SVG Version: 6.00 Build 0)  -->
<!DOCTYPE svg PUBLIC "-//W3C//DTD SVG 1.1//EN" "http://www.w3.org/Graphics/SVG/1.1/DTD/svg11.dtd">
<svg version="1.1" id="Layer_1" xmlns="http://www.w3.org/2000/svg" xmlns:xlink="http://www.w3.org/1999/xlink" x="0px" y="0px"
	 width="68px" height="54px" viewBox="0 0 68 54" enable-background="new 0 0 68 54" xml:space="preserve">
<g>
	<path fill="#D12668" d="M46.509,40.499C46.05,41.04,45.203,41.691,44,42.023c-1.479,0.41-2.956,0.205-4.154-0.604
		c-0.908-0.573-1.654-1.512-2.182-2.776l-1.137,0.312l-0.246-0.893l1.039-0.289c-0.023-0.092-0.049-0.188-0.073-0.275
		c-0.082-0.295-0.14-0.572-0.188-0.833l-1.08,0.298l-0.252-0.912l1.203-0.332c-0.131-1.34,0.122-2.552,0.649-3.501
		c0.662-1.224,1.694-2.099,3.196-2.513c1.078-0.298,2.002-0.219,2.591-0.084l-0.032,1.306c-0.529-0.146-1.368-0.176-2.191,0.054
		c-0.979,0.271-1.688,0.842-2.131,1.668c-0.4,0.686-0.537,1.604-0.455,2.623l5.098-1.405l0.25,0.911l-5.26,1.451
		c0.049,0.244,0.104,0.521,0.174,0.778c0.031,0.104,0.058,0.201,0.095,0.33l5.301-1.46l0.243,0.893L39.29,38.2
		c0.438,1.017,1.021,1.698,1.667,2.118c0.867,0.519,1.876,0.617,2.857,0.346c0.972-0.271,1.711-0.867,2.062-1.219L46.509,40.499z"/>
</g>
<path fill="#D12668" d="M36.003,0.729L-0.366,33.852L14.3,49.953l36.375-33.119L36.003,0.729z M25.154,34.439
	c-5.024,0-9.097-4.073-9.097-9.1c0-5.024,4.073-9.097,9.097-9.097c5.024,0,9.097,4.073,9.097,9.097
	C34.251,30.366,30.178,34.439,25.154,34.439z"/>
<path fill="#D12668" d="M25.029,24.419c-0.021,0.006-0.034,0.009-0.054,0.019l-2.188-2.409c0.706-0.569,1.36-0.752,1.718-0.832
	l-0.425-1.081c-0.544,0.113-1.222,0.374-1.978,1.017l-1.076-1.184l-0.073,0.066l-0.684,0.62l-0.089,0.08l1.14,1.256
	c-0.876,1.181-0.879,2.551,0.018,3.533c0.894,0.985,2.061,0.932,3.567,0.408l2.494,2.742c-0.646,0.516-1.393,0.822-2.033,0.919
	l0.45,1.079c0.703-0.08,1.632-0.526,2.351-1.152l0.723,0.797l0.005-0.005l0.396,0.437l0.77-0.695l-0.396-0.438l-0.757-0.83
	c1.07-1.353,0.919-2.866,0.042-3.829C27.962,23.849,26.751,23.788,25.029,24.419z M22.252,24.405
	c-0.334-0.368-0.504-0.959-0.17-1.597l1.776,1.952C23.135,24.91,22.646,24.839,22.252,24.405z M28.105,27.878l-2.103-2.311
	c0.848-0.201,1.484-0.11,1.963,0.415C28.442,26.508,28.483,27.221,28.105,27.878z"/>
<path fill="#D12668" d="M62.236,19.163l-15.289,4.232l-4.198,3.902c3.431,0.503,6.41,2.965,7.39,6.521
	c1.323,4.799-1.492,9.771-6.297,11.097c-4.806,1.327-9.769-1.494-11.095-6.298c-0.16-0.582-0.257-1.166-0.3-1.746l-13.002,12.09
	l1.196,4.326l47.416-13.133L62.236,19.163z"/>
</svg>
