<?xml version="1.0" encoding="utf-8"?>
<!-- Generator: Adobe Illustrator 16.0.0, SVG Export Plug-In . SVG Version: 6.00 Build 0)  -->
<!DOCTYPE svg PUBLIC "-//W3C//DTD SVG 1.1//EN" "http://www.w3.org/Graphics/SVG/1.1/DTD/svg11.dtd">
<svg version="1.1" id="Layer_1" xmlns="http://www.w3.org/2000/svg" xmlns:xlink="http://www.w3.org/1999/xlink" x="0px" y="0px"
	 width="400px" height="100px" viewBox="0 0 400 100" enable-background="new 0 0 400 100" xml:space="preserve">
<g>
	
		<linearGradient id="SVGID_1_" gradientUnits="userSpaceOnUse" x1="2391.0547" y1="-1677.707" x2="2391.0547" y2="-1692.3875" gradientTransform="matrix(1 0 0 -1 -2192.5 -1674)">
		<stop  offset="0" style="stop-color:#46BDD5"/>
		<stop  offset="1" style="stop-color:#117FAA"/>
	</linearGradient>
	<path fill="url(#SVGID_1_)" d="M205.025,3.634h-12.94c-0.329,0-0.6,0.285-0.6,0.632v12.872c0,0.348,0.271,0.631,0.6,0.631h2.319
		l2.878,3.295c0.109,0.117,0.2,0.077,0.2-0.087v-3.208h7.543c0.33,0,0.602-0.282,0.602-0.631V4.268
		C205.628,3.92,205.355,3.634,205.025,3.634z"/>
	<g>
		<g>
			<rect x="193.888" y="6.318" fill="#1A6282" width="1.404" height="0.183"/>
			<rect x="195.292" y="9.811" fill="#1A6282" width="3.81" height="0.184"/>
			<rect x="199.102" y="6.318" fill="#1A6282" width="1.404" height="0.183"/>
		</g>
		<g>
			<rect x="195.292" y="11.363" fill="#5DC2DB" width="3.81" height="0.185"/>
			<rect x="193.888" y="14.905" fill="#5DC2DB" width="1.404" height="0.184"/>
			<rect x="199.102" y="14.905" fill="#5DC2DB" width="1.404" height="0.184"/>
		</g>
		<path fill="#FFFFFF" d="M193.888,6.5h1.404v3.494h3.81V6.5h1.404v8.405h-1.404v-3.542h-3.81v3.542h-1.404V6.5z"/>
		<rect x="201.846" y="6.208" fill="#1A6282" width="1.379" height="0.183"/>
		<rect x="201.846" y="12.921" fill="#5DC2DB" width="1.379" height="0.184"/>
		<path fill="#FFFFFF" d="M201.846,6.39h1.379v6.531h-1.379V6.39z"/>
		<rect x="201.846" y="13.546" fill="#1A6282" width="1.379" height="0.185"/>
		<rect x="201.846" y="15.015" fill="#5DC2DB" width="1.379" height="0.185"/>
		<path fill="#FFFFFF" d="M201.846,13.731h1.379v1.283h-1.379V13.731z"/>
	</g>
</g>
<g>
	
		<linearGradient id="SVGID_2_" gradientUnits="userSpaceOnUse" x1="2409.8438" y1="-1677.707" x2="2409.8438" y2="-1692.3875" gradientTransform="matrix(1 0 0 -1 -2192.5 -1674)">
		<stop  offset="0" style="stop-color:#9C9C9C"/>
		<stop  offset="1" style="stop-color:#636363"/>
	</linearGradient>
	<path fill="url(#SVGID_2_)" d="M223.814,3.634h-12.939c-0.329,0-0.602,0.285-0.602,0.632v12.872c0,0.348,0.271,0.631,0.602,0.631
		h2.318l2.879,3.295c0.107,0.117,0.199,0.077,0.199-0.087v-3.208h7.543c0.33,0,0.603-0.282,0.603-0.631V4.268
		C224.418,3.92,224.146,3.634,223.814,3.634z"/>
	<g>
		<g>
			<rect x="212.68" y="6.318" fill="#1A6282" width="1.402" height="0.183"/>
			<rect x="214.082" y="9.811" fill="#1A6282" width="3.811" height="0.184"/>
			<rect x="217.893" y="6.318" fill="#1A6282" width="1.403" height="0.183"/>
		</g>
		<g>
			<rect x="214.082" y="11.363" fill="#5DC2DB" width="3.811" height="0.185"/>
			<rect x="212.68" y="14.905" fill="#5DC2DB" width="1.402" height="0.184"/>
			<rect x="217.893" y="14.905" fill="#5DC2DB" width="1.403" height="0.184"/>
		</g>
		<path fill="#FFFFFF" d="M212.68,6.5h1.402v3.494h3.811V6.5h1.403v8.405h-1.403v-3.542h-3.811v3.542h-1.402V6.5z"/>
		<rect x="220.637" y="6.208" fill="#1A6282" width="1.379" height="0.183"/>
		<rect x="220.637" y="12.921" fill="#5DC2DB" width="1.379" height="0.184"/>
		<path fill="#FFFFFF" d="M220.637,6.39h1.379v6.531h-1.379V6.39z"/>
		<rect x="220.637" y="13.546" fill="#1A6282" width="1.379" height="0.185"/>
		<rect x="220.637" y="15.015" fill="#5DC2DB" width="1.379" height="0.185"/>
		<path fill="#FFFFFF" d="M220.637,13.731h1.379v1.283h-1.379V13.731z"/>
	</g>
</g>
<image overflow="visible" enable-background="new    " width="82" height="78" id="Nz2Rcf" xlink:href="694448528FF36EEE.jpg"  transform="matrix(0.7298 0.0531 -0.0563 0.7736 232.7754 0.0093)">
</image>
<g>
	<rect x="32.714" y="51.932" fill="#EF4123" width="84.335" height="1.246"/>
</g>
<g>
	<path fill="#FFFFFF" d="M32.714,41.446c0.078,0.877,0.078,3.021,0.078,3.84c0,0.74,0,3.187-0.156,4.224v0.06h3.839
		c1.851,0,3.838-0.589,3.838-2.292c0-1.037-0.74-1.856-2.143-2.226c1.033-0.293,1.773-1.033,1.773-1.852
		c0-1.324-1.559-1.852-3.021-1.909h-4.209L32.714,41.446L32.714,41.446z M35.657,42.245c1.618,0,2.222,0.371,2.222,1.189
		c0,0.214-0.078,0.447-0.214,0.584c-0.292,0.371-0.877,0.585-1.695,0.526l0,0l-0.448,1.188h0.448c0.877,0,1.617,0.215,2.065,0.74
		c0.156,0.217,0.292,0.452,0.292,0.744c0,0.881-0.818,1.411-2.358,1.411c-0.292,0-0.663,0-0.955,0
		c-0.078-1.195-0.078-2.896-0.078-3.325c0-0.585,0-1.851,0.078-2.942C35.072,42.245,35.365,42.245,35.657,42.245z"/>
	<path fill="#FFFFFF" d="M49.161,41.291H47.31l0.078,2.065c0,1.033,0.078,2.065,0.156,3.099l0,0l0,0
		c-0.156-0.293-0.214-0.526-0.818-1.325c0,0-1.91-3.021-2.592-3.839l0,0H41.99v0.077c0,0.877,0.078,3.099,0.078,3.84
		c0,0.74,0,3.186-0.156,4.224v0.078h1.91v-0.078c-0.156-1.998-0.156-4.069-0.156-5.997l0,0c0.078,0.214,0.156,0.447,0.448,0.877
		c0,0.078,3.312,4.884,3.469,5.179l0,0h1.559v-0.077c-0.156-1.039-0.156-3.485-0.156-4.225c0-0.818,0.078-2.943,0.078-3.84
		L49.161,41.291L49.161,41.291z"/>
	<path fill="#FFFFFF" d="M51.46,41.368c0.078,0.877,0.078,3.021,0.078,3.84c0,0.74,0,3.186-0.156,4.224v0.078h2.28v-0.078
		c-0.078-0.744-0.078-2.233-0.156-3.327c0.078,0,0.448,0,0.448,0h0.292c3.021,0,4.501-0.818,4.501-2.514
		c0-1.91-2.066-2.358-3.761-2.358h-3.605L51.46,41.368z M54.266,42.323c1.111,0,1.851,0.215,2.221,0.663
		c0.156,0.214,0.214,0.448,0.214,0.74c0,1.188-1.325,1.481-2.436,1.481h-0.447c0,0-0.078,0-0.156,0c0-0.293,0-0.663,0-1.033
		c0-0.526,0-1.111,0-1.695C53.74,42.323,53.954,42.323,54.266,42.323z"/>
	<path fill="#FFFFFF" d="M63.19,41.368c0.078,0.877,0.078,3.021,0.078,3.84c0,0.74,0,3.186-0.155,4.224v0.078h2.279v-0.078
		c-0.078-0.744-0.078-2.233-0.156-3.327c0.078,0,0.449,0,0.449,0h0.291c3.021,0,4.502-0.818,4.502-2.514
		c0-1.91-2.065-2.358-3.761-2.358h-3.624L63.19,41.368z M65.996,42.323c1.111,0,1.852,0.215,2.222,0.663
		c0.156,0.214,0.215,0.448,0.215,0.74c0,1.188-1.325,1.481-2.437,1.481h-0.447h-0.156c0-0.293,0-0.663,0-1.033
		c0-0.526,0-1.111,0-1.695C65.471,42.323,65.763,42.323,65.996,42.323z"/>
	<path fill="#FFFFFF" d="M73.596,41.291L73.596,41.291L73.596,41.291c-0.525,1.188-3.254,7.24-3.624,8.141l-0.078,0.137h1.987
		v-0.079c0.156-0.588,0.371-1.194,0.663-1.918c0.078,0,1.617,0,1.617,0h1.325c0,0,0.215,0,0.292,0
		c0.37,0.881,0.585,1.567,0.741,1.918v0.079h2.279l-3.683-8.202l0,0h-1.56v-0.077H73.596z M74.181,43.726
		c0.155,0.37,0.663,1.481,1.188,2.808c-0.078,0-0.156,0-0.156,0h-1.032c0,0-1.032,0-1.188,0C73.362,45.5,73.81,44.545,74.181,43.726
		z"/>
	<path fill="#FFFFFF" d="M79.715,41.368c0.078,0.877,0.078,3.021,0.078,3.84c0,0.74,0,3.186-0.156,4.224v0.078h2.279v-0.078
		c-0.136-1.039-0.136-3.484-0.136-4.224c0-0.585,0-1.852,0.078-2.885c0.214,0,0.448-0.078,0.585-0.078
		c1.11,0,1.851,0.215,2.221,0.663c0.156,0.214,0.215,0.448,0.215,0.74c0,0.955-0.877,1.403-1.695,1.481c-0.293,0-0.526,0-0.526,0
		h-0.156l0.078,0.156c0.818,1.189,1.987,3.265,2.514,4.224l0,0h2.437l-0.078-0.155c-0.078-0.157-1.695-2.527-2.358-3.485
		c0,0,0,0-0.077-0.078c1.246-0.37,1.851-1.111,1.851-2.144c0-1.909-2.065-2.357-3.761-2.357h-3.625L79.715,41.368z"/>
	<path fill="#FFFFFF" d="M90.997,41.291h-2.202v0.077c0.078,0.877,0.078,3.021,0.078,3.84c0,0.74,0,3.186-0.156,4.224v0.078h2.28
		v-0.078c-0.078-1.039-0.155-3.484-0.155-4.224c0-0.818,0.077-2.943,0.077-3.84L90.997,41.291L90.997,41.291z"/>
	<path fill="#FFFFFF" d="M93.141,41.446c0.078,0.877,0.078,3.021,0.078,3.84c0,0.74,0,3.187-0.156,4.224v0.06h3.839
		c1.851,0,3.839-0.589,3.839-2.292c0-1.037-0.74-1.856-2.144-2.226c1.032-0.293,1.773-1.033,1.773-1.852
		c0-1.324-1.56-1.852-3.021-1.909H93.14L93.141,41.446L93.141,41.446z M96.102,42.245L96.102,42.245
		c1.617,0,2.222,0.371,2.222,1.189c0,0.214-0.078,0.447-0.215,0.584c-0.292,0.371-0.877,0.585-1.695,0.526h-0.078l-0.447,1.188
		h0.447c0.877,0,1.617,0.215,2.066,0.74c0.155,0.217,0.292,0.452,0.292,0.744c0,0.881-0.819,1.411-2.358,1.411
		c-0.292,0-0.662,0-0.955,0c-0.077-1.195-0.077-2.896-0.077-3.325c0-0.585,0-1.851,0.077-2.942
		C95.498,42.245,95.791,42.245,96.102,42.245z"/>
	<path fill="#FFFFFF" d="M106.43,41.291h-1.559v0.077c-0.448,1.248-3.312,7.535-3.625,8.064l-0.077,0.078h1.987v-0.078
		c0.156-0.588,0.37-1.194,0.662-1.919c0.078,0,1.617,0,1.617,0h1.326c0,0,0.214,0,0.292,0c0.37,0.881,0.585,1.567,0.74,1.919v0.078
		h2.28L106.43,41.291L106.43,41.291z M105.475,43.726c0.156,0.37,0.663,1.481,1.189,2.808c-0.078,0-0.156,0-0.156,0h-1.033
		c0,0-1.032,0-1.188,0C104.656,45.5,105.105,44.545,105.475,43.726z"/>
	<path fill="#FFFFFF" d="M110.697,43.434c0,1.48,1.48,2.065,2.729,2.592c1.032,0.37,2.065,0.821,2.065,1.487
		c0,0.216-0.078,0.371-0.156,0.527c-0.214,0.294-0.74,0.373-1.481,0.373c-0.74,0-1.617-0.294-2.591-0.744l-0.37-0.156v0.294v1.486
		l0.292,0.079h0.155c0.527,0.156,1.404,0.37,2.28,0.37c2.437,0,3.839-0.958,3.839-2.603c0-1.486-1.48-2.07-2.806-2.597
		c-0.955-0.37-1.987-0.818-1.987-1.403c0-0.214,0-0.74,1.246-0.74c0.955,0,1.852,0.37,2.358,0.585l0.448,0.214v-0.292v-1.481
		l-0.448-0.078c-0.448-0.077-1.247-0.214-2.065-0.214C112.101,40.999,110.697,42.031,110.697,43.434z"/>
</g>
<g>
	<g>
		<g>
			<path fill="#FFFFFF" d="M59.118,55.342v1.188c-1.033-0.076-2.942-0.076-2.942-0.076c-0.156,0-0.37,0-0.526,0
				c0,0.662,0,1.402,0,1.908l2.436-0.078v1.111H55.65v0.156c0,0.818,0.078,2.064,0.156,2.805h-2.358
				c0.078-1.031,0.078-3.098,0.078-3.682c0-0.663,0-2.592-0.078-3.312h5.67V55.342z"/>
			<path fill="#FFFFFF" d="M64.067,62.57c-2.222,0-3.839-1.479-3.839-3.683s1.617-3.683,3.839-3.683
				c2.144,0,3.839,1.479,3.839,3.683S66.289,62.57,64.067,62.57z M64.067,56.062c-1.032,0-1.617,0.955-1.617,2.807
				c0,1.851,0.663,2.806,1.617,2.806c1.032,0,1.618-0.955,1.618-2.806C65.686,57.095,65.1,56.062,64.067,56.062z"/>
			<path fill="#FFFFFF" d="M72.992,55.342c1.559,0,3.391,0.525,3.391,2.221c0,0.877-0.662,1.48-1.695,1.91
				c0.215,0.369,1.91,2.592,2.279,2.941h-2.514c-0.447-0.818-1.246-2.279-2.143-3.547c1.032,0.156,1.851-0.369,1.851-1.324
				s-1.032-1.188-1.617-1.188c-0.214,0-0.663,0-0.818,0c-0.078,0.877-0.078,1.908-0.078,2.357c0,0.584,0,2.591,0.155,3.682h-2.357
				c0.156-1.031,0.156-2.279,0.156-3.682c0-1.189,0-2.592-0.156-3.312h3.547L72.992,55.342L72.992,55.342z"/>
			<path fill="#FFFFFF" d="M84.139,55.342v1.188c-1.033-0.076-1.404-0.154-2.223-0.154c-0.077,0.818-0.077,1.908-0.077,2.357
				c0,0.584,0,2.592,0.155,3.683h-2.357c0.156-1.032,0.156-3.099,0.156-3.683c0-0.449-0.078-1.617-0.078-2.357
				c-0.818,0-1.247,0.078-2.279,0.154v-1.188H84.139z"/>
			<path fill="#FFFFFF" d="M88.055,55.342c-0.078,0.818-0.078,2.648-0.078,3.312c0,0.584,0,2.728,0.078,3.683h-2.279
				c0.155-1.033,0.155-3.099,0.155-3.683c0-0.664-0.077-2.592-0.077-3.312H88.055z"/>
			<path fill="#FFFFFF" d="M93.062,55.186c0.877,0,1.773,0.156,2.279,0.292v1.773c-0.74-0.448-1.559-0.818-2.514-0.818
				c-0.818,0-0.876,0.292-0.876,0.526c0,1.188,3.976,1.188,3.976,3.312c0,1.401-1.326,2.278-3.469,2.278
				c-0.955,0-1.852-0.214-2.514-0.447v-1.694c1.48,0.662,2.279,0.875,2.941,0.875c0.527,0,0.955-0.213,0.955-0.739
				c0-1.325-3.975-1.188-3.975-3.47C89.965,55.926,91.23,55.186,93.062,55.186z"/>
		</g>
	</g>
</g>
<polyline fill="#009966" points="1.498,39.225 26.44,39.225 26.44,64.188 1.498,64.188 "/>
<g>
	<g>
		<path fill="#00945E" d="M20.828,45.948c-1.559,0.88-1.987,0.958-3.683,1.996l0.078-0.215c0.877-0.96,1.247-1.333,1.851-2.229
			c-1.559,0.077-3.761,0.292-5.378,0.585l0,0l0,0l0,0l0.078-0.156c1.481-0.74,4.131-1.403,5.534-1.617
			c-0.37-0.449-3.098-1.91-3.761-2.222l0,0l0,0l0,0l0.078-0.156c2.065,0.215,4.793,1.188,5.982,1.909
			c0.585-0.077,1.111-0.155,2.065-0.214c0,0-0.156,0.585-1.188,1.247l0,0l0,0l0,0c0.214,0.662-0.37,4.439-0.877,5.476l0,0l0,0l0,0
			C21.568,48.825,21.413,46.828,20.828,45.948z"/>
		<path fill="#00945E" d="M9.623,59.473l0.059-0.156c-0.818-0.369-1.617-0.584-2.28-1.246l0,0l0,0l0,0l0,0l0,0l0,0l0,0l0,0l0,0l0,0
			l0,0l0,0l0,0l0,0l0,0l0,0l0,0l0,0l0,0l0,0l0,0l0,0l0,0l0,0l0,0l0,0l0,0l0,0l0,0l0,0l0,0c0.214-0.586,0.448-1.033,0.818-1.617l0,0
			l0,0l0,0l0,0l0,0l0,0l0,0l0,0l0,0l0,0l0,0l0,0l0,0l0,0l0,0l0,0l0,0l0,0l0,0l0,0l0,0l0,0l0,0l0,0l0,0l0,0l0,0l0,0l0,0l0,0l0,0
			l0.078-0.156c-0.741,0.078-1.325,0.37-1.91,0.525l0,0l0,0l0,0l0,0l0,0l0,0l0,0l0,0l0,0l0,0l0,0l0,0l0,0l0,0l0,0l0,0l0,0l0,0l0,0
			l0,0l0,0l0,0l0,0l0,0l0,0l0,0l0,0l0,0l0,0l0,0l0,0c-0.448-0.817-0.663-1.987-0.877-3.099l-0.098,0.138l0,0l0,0l0,0l0,0l0,0l0,0
			l0,0l0,0l0,0l0,0l0,0l0,0l0,0l0,0l0,0c-0.156,1.246-0.214,2.144,0,3.176l0,0l0,0l0,0l0,0l0,0l0,0l0,0l0,0l0,0l0,0l0,0l0,0l0,0l0,0
			l0,0l0,0l0,0l0,0l0,0l0,0l0,0l0,0l0,0l0,0l0,0l0,0l0,0l0,0l0,0l0,0l0,0c-0.526,0.156-0.955,0.156-1.325,0.369L4.01,57.562l0,0l0,0
			l0,0l0,0l0,0l0,0l0,0l0,0l0,0l0,0l0,0l0,0l0,0l0,0l0,0l0,0l0,0l0,0l0,0l0,0l0,0l0,0l0,0l0,0l0,0l0,0l0,0l0,0l0,0l0,0l0,0
			c0.663,0.37,1.188,0.74,1.91,1.033l0,0l0,0l0,0l0,0l0,0l0,0l0,0l0,0l0,0l0,0l0,0l0,0l0,0l0,0l0,0l0,0l0,0l0,0l0,0l0,0l0,0l0,0l0,0
			l0,0l0,0l0,0l0,0l0,0l0,0l0,0l0,0c0.37,0.818,0.818,1.402,1.481,2.064l0,0l0,0l0,0l0,0l0,0l0,0l0,0l0,0l0,0l0,0l0,0l0,0l0,0l0,0
			l0,0l0,0l0,0l0,0l0,0l0,0l0,0l0,0l0,0l0,0l0,0l0,0l0,0l0,0l0,0l0,0l0,0l0.078-0.155c-0.156-0.448-0.292-0.877-0.214-1.403l0,0l0,0
			l0,0l0,0l0,0l0,0l0,0l0,0l0,0l0,0l0,0l0,0l0,0l0,0l0,0l0,0l0,0l0,0l0,0l0,0l0,0l0,0l0,0l0,0l0,0l0,0l0,0l0,0l0,0l0,0l0,0
			C7.987,59.316,8.649,59.395,9.623,59.473z"/>
		<path fill="#00945E" d="M11.826,46.906c0,0-0.292,0.586-0.584,1.331h-0.078l0,0l0,0c1.91,0.294,3.761,1.038,4.209,1.331
			l-0.078,0.157l0,0l0,0l0,0l0,0l0,0l0,0l0,0c-1.987-0.371-3.02-0.292-3.761-0.216l0,0l0,0l0,0c-0.74,0.059-0.877,0.137-0.877,0.137
			l0,0l0,0l0,0l0,0l0,0l0,0l0,0c-0.448,0.959-0.662,2.441-0.818,3.026l-0.078,0.156l0,0l0,0l0,0l0,0l0,0l0,0l0,0
			c-0.371-0.896-0.877-2.672-0.877-2.672l0,0l0,0l0,0l0,0l0,0l0,0l0,0c-1.033,0.526-3.312,2.729-3.312,2.729l0,0l0,0l0,0l0,0l0,0
			l0,0l0,0c1.247-2.516,2.591-3.689,2.591-3.689l0,0l0,0l0,0l0,0l0,0l0,0l0,0c-0.448-0.45-1.617-0.665-2.436-0.744l0,0l0,0l0,0
			l0.078-0.157c0.526-0.078,1.617-0.157,2.357-0.216l0,0l0,0l0,0l0,0l0,0l0,0l0,0c0.877,0,1.403,0,1.403,0l0,0l0,0l0,0
			C10.286,47.493,11.456,46.983,11.826,46.906z"/>
		<path fill="#00945E" d="M14.339,57.836c-0.37,0.525-0.741,0.954-1.188,1.48l0,0l0,0l0,0l0,0l0,0l0,0l0,0l0,0l0,0l0,0l0,0l0,0l0,0
			l0,0l0,0l0,0l0,0l0,0l0,0l0,0l0,0l0,0l0,0l0,0l0,0l0,0l0,0l0,0l0,0l0,0l0,0c-0.663,0.155-1.481,0.077-2.066,0.155l-0.078,0.155
			l0,0l0,0l0,0l0,0l0,0l0,0l0,0l0,0l0,0l0,0l0,0l0,0l0,0l0,0l0,0l0,0l0,0l0,0l0,0l0,0l0,0l0,0l0,0l0,0l0,0l0,0l0,0l0,0l0,0l0,0l0,0
			c0.448,0.214,0.877,0.369,1.403,0.447l0,0l0,0l0,0l0,0l0,0l0,0l0,0l0,0l0,0l0,0l0,0l0,0l0,0l0,0l0,0l0,0l0,0l0,0l0,0l0,0l0,0l0,0
			l0,0l0,0l0,0l0,0l0,0l0,0l0,0l0,0l0,0c-0.37,0.371-0.877,0.586-1.247,0.877l-0.078,0.156l0,0l0,0l0,0l0,0l0,0l0,0l0,0l0,0l0,0l0,0
			l0,0l0,0l0,0l0,0l0,0l0,0l0,0l0,0l0,0l0,0l0,0l0,0l0,0l0,0l0,0l0,0l0,0l0,0l0,0l0,0l0,0c0.818-0.215,1.773-0.525,2.592-0.955l0,0
			l0,0l0,0l0,0l0,0l0,0l0,0l0,0l0,0l0,0l0,0l0,0l0,0l0,0l0,0l0,0l0,0l0,0l0,0l0,0l0,0l0,0l0,0l0,0l0,0l0,0l0,0l0,0l0,0l0,0l0,0
			c0.37,0,0.74,0,1.033-0.078l0,0l0,0l0,0l0,0l0,0l0,0l0,0l0,0l0,0l0,0l0,0l0,0l0,0l0,0l0,0l0,0l0,0l0,0l0,0l0,0l0,0l0,0l0,0l0,0
			l0,0l0,0l0,0l0,0l0,0l0,0l0,0l0.078-0.155c-0.078-0.155-0.214-0.292-0.214-0.525l0,0l0,0l0,0l0,0l0,0l0,0l0,0l0,0l0,0l0,0l0,0l0,0
			l0,0l0,0l0,0l0,0l0,0l0,0l0,0l0,0l0,0l0,0l0,0l0,0l0,0l0,0l0,0l0,0l0,0l0,0l0,0c0.74-0.585,1.247-1.032,1.851-1.694l0,0l0,0l0,0
			l0,0l0,0l0,0l0,0l0,0l0,0l0,0l0,0l0,0l0,0l0,0l0,0l0,0l0,0l0,0l0,0l0,0l0,0l0,0l0,0l0,0l0,0l0,0l0,0l0,0l0,0l0,0l0,0l0.078-0.156
			c-0.585,0.447-1.325,0.955-1.988,1.324l0,0l0,0l0,0l0,0l0,0l0,0l0,0l0,0l0,0l0,0l0,0l0,0l0,0l0,0l0,0l0,0l0,0l0,0l0,0l0,0l0,0l0,0
			l0,0l0,0l0,0l0,0l0,0l0,0l0,0l0,0l0,0C14.339,58.498,14.339,58.205,14.339,57.836z"/>
	</g>
	<g>
		<path fill="#FFFFFF" d="M20.906,45.792c-1.559,0.878-1.988,0.957-3.683,1.995c0.955-1.038,1.325-1.487,1.91-2.365
			c-1.559,0.078-3.761,0.292-5.378,0.585l0,0l0,0l0,0c1.403-0.74,4.131-1.56,5.612-1.773c-0.37-0.448-3.098-1.91-3.761-2.222l0,0
			l0,0l0,0c2.144,0.155,4.793,0.955,6.119,1.773c0.526-0.156,1.033-0.156,1.987-0.214l0,0l0,0l0,0
			c-0.214,0.447-0.214,0.662-1.188,1.246l0,0l0,0l0,0c0.214,0.663-0.37,4.438-0.877,5.477l0,0l0,0l0,0
			C21.646,48.61,21.491,46.67,20.906,45.792z"/>
		<path fill="#FFFFFF" d="M9.682,59.238c-0.877-0.293-1.559-0.74-2.221-1.324l0,0l0,0l0,0l0,0l0,0l0,0l0,0l0,0l0,0l0,0l0,0l0,0l0,0
			l0,0l0,0l0,0l0,0l0,0l0,0l0,0l0,0l0,0l0,0l0,0l0,0l0,0l0,0l0,0l0,0l0,0l0,0c0.214-0.586,0.448-1.033,0.818-1.618l0,0l0,0l0,0l0,0
			l0,0l0,0l0,0l0,0l0,0l0,0l0,0l0,0l0,0l0,0l0,0l0,0l0,0l0,0l0,0l0,0l0,0l0,0l0,0l0,0l0,0l0,0l0,0l0,0l0,0l0,0l0,0
			c-0.741,0.078-1.247,0.214-1.851,0.292l0,0l0,0l0,0l0,0l0,0l0,0l0,0l0,0l0,0l0,0l0,0l0,0l0,0l0,0l0,0l0,0l0,0l0,0l0,0l0,0l0,0l0,0
			l0,0l0,0l0,0l0,0l0,0l0,0l0,0l0,0l0,0c-0.526-0.877-0.741-1.695-0.955-2.941l0,0l0,0l0,0l0,0l0,0l0,0l0,0l0,0l0,0l0,0l0,0l0,0l0,0
			l0,0l0,0c-0.156,1.246-0.214,2.144,0,3.176l0,0l0,0l0,0l0,0l0,0l0,0l0,0l0,0l0,0l0,0l0,0l0,0l0,0l0,0l0,0l0,0l0,0l0,0l0,0l0,0l0,0
			l0,0l0,0l0,0l0,0l0,0l0,0l0,0l0,0l0,0l0,0c-0.584,0.156-0.955,0.293-1.403,0.525l0,0l0,0l0,0l0,0l0,0l0,0l0,0l0,0l0,0l0,0l0,0l0,0
			l0,0l0,0l0,0l0,0l0,0l0,0l0,0l0,0l0,0l0,0l0,0l0,0l0,0l0,0l0,0l0,0l0,0l0,0l0,0c0.663,0.371,1.188,0.741,1.91,1.033l0,0l0,0l0,0
			l0,0l0,0l0,0l0,0l0,0l0,0l0,0l0,0l0,0l0,0l0,0l0,0l0,0l0,0l0,0l0,0l0,0l0,0l0,0l0,0l0,0l0,0l0,0l0,0l0,0l0,0l0,0l0,0
			c0.37,0.818,0.818,1.402,1.481,2.064l0,0l0,0l0,0l0,0l0,0l0,0l0,0l0,0l0,0l0,0l0,0l0,0l0,0l0,0l0,0l0,0l0,0l0,0l0,0l0,0l0,0l0,0
			l0,0l0,0l0,0l0,0l0,0l0,0l0,0l0,0l0,0c-0.156-0.525-0.214-0.953-0.156-1.559l0,0l0,0l0,0l0,0l0,0l0,0l0,0l0,0l0,0l0,0l0,0l0,0l0,0
			l0,0l0,0l0,0l0,0l0,0l0,0l0,0l0,0l0,0l0,0l0,0l0,0l0,0l0,0l0,0l0,0l0,0l0,0C8.065,59.102,8.727,59.238,9.682,59.238z"/>
		<path fill="#FFFFFF" d="M11.981,46.749L11.981,46.749L11.981,46.749L11.981,46.749L11.981,46.749
			c-0.292,0.372-0.584,1.038-0.663,1.331l0,0l0,0l0,0c2.28,0.314,4.131,1.488,4.131,1.488l0,0l0,0l0,0l0,0l0,0l0,0l0,0
			c-1.988-0.371-3.021-0.292-3.761-0.214l0,0l0,0l0,0c-0.741,0.079-0.877,0.155-0.877,0.155l0,0l0,0l0,0l0,0l0,0l0,0l0,0
			c-0.526,1.192-0.877,3.183-0.877,3.183l0,0l0,0l0,0l0,0l0,0l0,0l0,0c-0.37-0.877-0.877-2.653-0.877-2.653l0,0l0,0l0,0l0,0l0,0l0,0
			l0,0c-1.033,0.528-3.312,2.731-3.312,2.731l0,0l0,0l0,0l0,0l0,0l0,0l0,0c1.208-2.535,2.533-3.71,2.533-3.71l0,0l0,0l0,0l0,0l0,0
			l0,0l0,0C7.83,48.61,6.66,48.394,5.842,48.315l0,0l0,0l0,0c0.448-0.156,1.559-0.371,2.436-0.45l0,0l0,0l0,0l0,0l0,0l0,0l0,0
			c0.877,0,1.403,0,1.403,0l0,0l0,0l0,0C10.345,47.355,11.533,46.828,11.981,46.749z"/>
		<path fill="#FFFFFF" d="M14.417,57.699c-0.37,0.524-0.74,0.955-1.188,1.479l0,0l0,0l0,0l0,0l0,0l0,0l0,0l0,0l0,0l0,0l0,0l0,0l0,0
			l0,0l0,0l0,0l0,0l0,0l0,0l0,0l0,0l0,0l0,0l0,0l0,0l0,0l0,0l0,0l0,0l0,0l0,0c-0.74,0.215-1.403,0.293-2.144,0.293l0,0l0,0l0,0l0,0
			l0,0l0,0l0,0l0,0l0,0l0,0l0,0l0,0l0,0l0,0l0,0l0,0l0,0l0,0l0,0l0,0l0,0l0,0l0,0l0,0l0,0l0,0l0,0l0,0l0,0l0,0l0,0
			c0.448,0.214,0.877,0.369,1.403,0.447l0,0l0,0l0,0l0,0l0,0l0,0l0,0l0,0l0,0l0,0l0,0l0,0l0,0l0,0l0,0l0,0l0,0l0,0l0,0l0,0l0,0l0,0
			l0,0l0,0l0,0l0,0l0,0l0,0l0,0l0,0l0,0c-0.448,0.448-0.877,0.741-1.325,1.032l0,0l0,0l0,0l0,0l0,0l0,0l0,0l0,0l0,0l0,0l0,0l0,0l0,0
			l0,0l0,0l0,0l0,0l0,0l0,0l0,0l0,0l0,0l0,0l0,0l0,0l0,0l0,0l0,0l0,0l0,0l0,0c0.818-0.215,1.773-0.524,2.592-0.955l0,0l0,0l0,0l0,0
			l0,0l0,0l0,0l0,0l0,0l0,0l0,0l0,0l0,0l0,0l0,0l0,0l0,0l0,0l0,0l0,0l0,0l0,0l0,0l0,0l0,0l0,0l0,0l0,0l0,0l0,0l0,0
			c0.37,0,0.74,0,1.033-0.077l0,0l0,0l0,0l0,0l0,0l0,0l0,0l0,0l0,0l0,0l0,0l0,0l0,0l0,0l0,0l0,0l0,0l0,0l0,0l0,0l0,0l0,0l0,0l0,0
			l0,0l0,0l0,0l0,0l0,0l0,0l0,0c-0.078-0.214-0.156-0.369-0.156-0.662l0,0l0,0l0,0l0,0l0,0l0,0l0,0l0,0l0,0l0,0l0,0l0,0l0,0l0,0l0,0
			l0,0l0,0l0,0l0,0l0,0l0,0l0,0l0,0l0,0l0,0l0,0l0,0l0,0l0,0l0,0l0,0c0.74-0.584,1.247-1.033,1.851-1.694l0,0l0,0l0,0l0,0l0,0l0,0
			l0,0l0,0l0,0l0,0l0,0l0,0l0,0l0,0l0,0l0,0l0,0l0,0l0,0l0,0l0,0l0,0l0,0l0,0l0,0l0,0l0,0l0,0l0,0l0,0l0,0
			c-0.663,0.447-1.189,0.739-1.91,1.11l0,0l0,0l0,0l0,0l0,0l0,0l0,0l0,0l0,0l0,0l0,0l0,0l0,0l0,0l0,0l0,0l0,0l0,0l0,0l0,0l0,0l0,0
			l0,0l0,0l0,0l0,0l0,0l0,0l0,0l0,0l0,0C14.417,58.361,14.417,58.07,14.417,57.699z"/>
	</g>
</g>
<g>
	<path fill="none" d="M137.426,12.568c0-0.299-0.101-0.699-0.4-1c-0.5-0.699-1.6-1-2.8-1h-0.6l0.6-1.6h0.1
		c1,0.1,1.9-0.199,2.301-0.699c0.199-0.201,0.3-0.5,0.3-0.801c0-1.199-0.9-1.699-3.101-1.699c-0.399,0-0.8,0-1.1,0
		c-0.1,1.5-0.1,3.299-0.1,4.1c0,0.6,0,2.9,0.1,4.6c0.4,0,1,0,1.4,0C136.326,14.468,137.426,13.869,137.426,12.568z"/>
	<path fill="none" d="M89.126,25.083c-1.4,0-2.301,1.4-2.301,3.9s0.9,3.899,2.301,3.899c1.399,0,2.3-1.3,2.3-3.899
		C91.426,26.483,90.526,25.083,89.126,25.083z"/>
	<path fill="none" d="M91.826,9.769c1.5,0,3.4-0.301,3.4-2c0-0.4-0.1-0.701-0.3-1c-0.5-0.601-1.601-0.9-3.101-0.9
		c-0.399,0-0.699,0-0.899,0c0,0.8,0,1.699,0,2.4c0,0.6,0,1.1,0,1.5c0.1,0,0.3,0,0.3,0H91.826z"/>
	<path fill="none" d="M75.426,9.769c1.5,0,3.4-0.301,3.4-2c0-0.4-0.1-0.701-0.3-1c-0.5-0.601-1.6-0.9-3.1-0.9c-0.4,0-0.7,0-0.9,0
		c0,0.8,0,1.699,0,2.4c0,0.6,0,1.1,0,1.5c0.1,0,0.3,0,0.3,0H75.426z"/>
	<path fill="none" d="M148.426,11.769c0,0,0.1,0,0.201,0c-0.801-1.801-1.4-3.4-1.701-3.9c-0.5,1.1-1.1,2.4-1.6,3.9
		c0.301,0,1.699,0,1.699,0H148.426z"/>
	<path fill="none" d="M104.726,11.769c0,0,0.1,0,0.2,0c-0.8-1.801-1.4-3.4-1.7-3.9c-0.5,1.1-1.1,2.4-1.6,3.9
		c0.199,0,1.699,0,1.699,0H104.726z"/>
	<path fill="none" d="M53.026,12.568c0-0.299-0.1-0.699-0.4-1c-0.5-0.699-1.6-1-2.8-1h-0.6l0.6-1.6h0.1c1,0.1,1.9-0.199,2.3-0.699
		c0.2-0.201,0.3-0.5,0.3-0.801c0-1.199-0.9-1.699-3.1-1.699c-0.3,0-0.8,0-1,0c-0.1,1.5-0.1,3.299-0.1,4.1c0,0.6,0,2.9,0.1,4.6
		c0.3,0,0.9,0,1.3,0C51.926,14.468,53.026,13.869,53.026,12.568z"/>
	<rect x="45.326" y="19.269" fill="#E53517" width="117.801" height="1.809"/>
	<path d="M56.026,12.769c0-1.5-1.1-2.5-3-3.101c1.4-0.399,2.4-1.399,2.4-2.601c0-1.899-2.2-2.6-4.2-2.699h-5.9v0.199
		c0.1,1.201,0.2,4.201,0.2,5.4c0,1,0,4.4-0.2,5.9v0.1h5.3C53.226,15.968,56.026,15.168,56.026,12.769z M48.426,14.468
		c-0.1-1.699-0.1-4-0.1-4.6c0-0.801,0-2.6,0.1-4.1c0.2,0,0.7,0,1,0c2.2,0,3.1,0.5,3.1,1.699c0,0.301-0.1,0.6-0.3,0.801
		c-0.4,0.5-1.3,0.799-2.3,0.699h-0.1l-0.6,1.6h0.6c1.2,0,2.3,0.301,2.8,1c0.3,0.301,0.4,0.701,0.4,1c0,1.301-1.1,1.9-3.3,1.9
		C49.326,14.468,48.726,14.468,48.426,14.468z"/>
	<path d="M60.826,15.869c-0.1-2.801-0.1-5.6-0.1-8.4c0.1,0.301,0.2,0.6,0.6,1.301c0,0.1,4.7,6.799,4.9,7.199h2.2v-0.1
		c-0.2-1.5-0.2-4.9-0.2-5.9c0-1.1,0.1-4.1,0.2-5.4l-0.1-0.1h-2.6l0.1,2.9c0,1.4,0.1,2.9,0.2,4.3c-0.2-0.399-0.3-0.7-1.1-1.8
		c0,0-2.7-4.2-3.7-5.4h-3v0.1c0.1,1.201,0.1,4.201,0.1,5.4c0,1,0,4.4-0.2,5.9v0.1h2.7V15.869z"/>
	
		<line fill="none" stroke="#000000" stroke-width="0" stroke-linecap="round" stroke-linejoin="round" x1="71.426" y1="4.568" x2="71.526" y2="4.568"/>
	<path d="M71.526,15.869v0.1h3.2v-0.1c-0.1-1.1-0.2-3.1-0.2-4.6c0.1,0,0.6,0,0.6,0h0.5c4.1,0,6.1-1.101,6.1-3.4
		c0-2.7-2.9-3.301-5.3-3.301h-4.9c0.1,1.201,0.2,4.201,0.2,5.4C71.726,10.968,71.726,14.369,71.526,15.869z M74.526,8.269
		c0-0.701,0-1.601,0-2.4c0.2,0,0.5,0,0.9,0c1.5,0,2.6,0.3,3.1,0.9c0.2,0.299,0.3,0.6,0.3,1c0,1.699-1.9,2-3.4,2h-0.6
		c0,0-0.2,0-0.3,0C74.526,9.369,74.526,8.869,74.526,8.269z"/>
	<path d="M91.126,15.869c-0.101-1.1-0.101-3.1-0.2-4.6c0.1,0,0.6,0,0.6,0h0.5c4.2,0,6.3-1.101,6.3-3.5
		c0-2.701-2.899-3.301-5.3-3.301h-5l-0.1,0.1c0.1,1.201,0.2,4.201,0.2,5.4c0,1,0,4.4-0.2,5.9v0.1h3.2V15.869z M90.926,8.269
		c0-0.701,0-1.601,0-2.4c0.2,0,0.5,0,0.899,0c1.5,0,2.601,0.3,3.101,0.9c0.2,0.299,0.3,0.6,0.3,1c0,1.699-1.9,2-3.4,2h-0.6
		c0,0-0.2,0-0.3,0C90.926,9.369,90.926,8.869,90.926,8.269z"/>
	<path d="M97.226,15.968h2.7v-0.1c0.2-0.801,0.5-1.7,0.899-2.6c0.101,0,2.301,0,2.301,0h1.899c0,0,0.3,0,0.4,0
		c0.5,1.199,0.899,2.199,1,2.6v0.1h3.2l-5.101-11.5h-2.1c-0.7,1.7-4.5,10.1-5.101,11.301L97.226,15.968z M103.226,7.869
		c0.3,0.5,0.9,2.1,1.7,3.9c-0.101,0-0.2,0-0.2,0h-1.4c0,0-1.5,0-1.699,0C102.126,10.269,102.726,8.968,103.226,7.869z"/>
	<path d="M111.226,9.968c0,1,0,4.4-0.2,5.9v0.1h3.2v-0.1c-0.2-1.5-0.2-4.9-0.2-5.9c0-0.8,0-2.6,0.101-4c0.3,0,0.6-0.1,0.899-0.1
		c1.5,0,2.601,0.3,3.101,0.9c0.199,0.299,0.3,0.6,0.3,1c0,1.299-1.2,2-2.4,2.1c-0.399,0-0.7,0-0.7,0h-0.199l0.1,0.199
		c1.1,1.701,2.8,4.5,3.5,5.9h3.4l-0.101-0.199c-0.1-0.201-2.399-3.5-3.3-4.9c0,0,0,0-0.1-0.1c1.699-0.5,2.6-1.5,2.6-3
		c0-2.701-2.9-3.301-5.3-3.301h-5l0.1,0.1C111.126,5.769,111.226,8.769,111.226,9.968z"/>
	<path d="M126.826,15.869c-0.199-1.5-0.199-4.9-0.199-5.9c0-1.1,0.1-4.1,0.199-5.4l-0.1-0.1h-3.1v0.1
		c0.1,1.201,0.199,4.201,0.199,5.4c0,1,0,4.4-0.199,5.9v0.1h3.199V15.869z"/>
	<path d="M140.426,12.769c0-1.5-1.101-2.5-3-3.101c1.5-0.399,2.399-1.399,2.399-2.601c0-1.899-2.199-2.6-4.199-2.699h-5.9v0.199
		c0.1,1.201,0.2,4.201,0.2,5.4c0,1,0,4.4-0.2,5.9v0.1h5.3C137.626,15.968,140.426,15.168,140.426,12.769z M132.726,14.468
		c-0.1-1.699-0.1-4-0.1-4.6c0-0.801,0-2.6,0.1-4.1c0.3,0,0.7,0,1.1,0c2.2,0,3.101,0.5,3.101,1.699c0,0.301-0.101,0.6-0.3,0.801
		c-0.4,0.5-1.301,0.799-2.301,0.699h-0.1l-0.6,1.6h0.6c1.2,0,2.3,0.301,2.8,1c0.3,0.301,0.4,0.701,0.4,1c0,1.301-1.101,1.9-3.3,1.9
		C133.726,14.468,133.126,14.468,132.726,14.468z"/>
	<path d="M143.627,15.968c0.199-0.8,0.5-1.699,0.898-2.6c0.102,0,2.301,0,2.301,0h1.9c0,0,0.299,0,0.4,0
		c0.5,1.199,0.898,2.199,1,2.6v0.1h3.199l-5.1-11.6h-2.201v0.1c-0.6,1.701-4.7,10.5-5,11.301l-0.1,0.199h2.701V15.968z
		 M146.926,7.869c0.301,0.5,0.9,2.1,1.701,3.9c-0.102,0-0.201,0-0.201,0h-1.4c0,0-1.398,0-1.699,0
		C145.826,10.269,146.426,8.968,146.926,7.869z"/>
	<path d="M158.127,11.068c1.398,0.601,2.799,1.101,2.799,2.101c0,0.3-0.1,0.5-0.199,0.7c-0.301,0.4-1,0.6-2.1,0.5
		c-1.102-0.1-2.301-0.4-3.602-1l-0.6-0.301v0.4v2.1l0.4,0.101h0.199c0.701,0.2,2,0.5,3.201,0.5c3.4,0,5.4-1.3,5.4-3.601
		c0-2.1-2.102-2.899-3.9-3.6c-1.4-0.5-2.801-1.1-2.801-2c0-0.3,0-1,1.701-1c1.299,0,2.6,0.5,3.299,0.801l0.701,0.299V6.668V4.568
		l-0.701-0.1c-0.699-0.1-1.699-0.3-2.9-0.3c-2.699-0.101-4.699,1.3-4.699,3.3S156.326,10.269,158.127,11.068z"/>
	<path d="M74.426,28.783c0,0.8,0,3.6-0.1,5.1h3.3c-0.1-1.2-0.2-2.8-0.2-4v-0.2h3.4v-1.5l-3.4,0.101c0-0.7,0-1.8,0-2.7
		c0.2,0,0.5,0,0.7,0c0,0,2.6,0,4.1,0.1v-1.6h-7.9C74.426,25.182,74.426,27.882,74.426,28.783z"/>
	<path d="M89.126,23.783c-3.101,0-5.4,2.1-5.4,5.2c0,3.1,2.3,5.199,5.4,5.199c3.1,0,5.399-2.1,5.3-5.199
		C94.426,25.882,92.126,23.783,89.126,23.783z M89.126,32.882c-1.4,0-2.301-1.399-2.301-3.899s0.9-3.9,2.301-3.9
		c1.399,0,2.3,1.4,2.3,3.9C91.426,31.583,90.526,32.882,89.126,32.882z"/>
	<path d="M106.326,27.083c0-2.2-2.6-3-4.699-3v-0.1h-4.9c0.2,1,0.2,3,0.2,4.699c0,2,0,3.7-0.2,5.2h3.2c-0.2-1.5-0.2-4.3-0.2-5.2
		c0-0.699,0-2.1,0.1-3.3c0.301,0,0.9,0,1.2,0c0.7,0,2.2,0.4,2.2,1.7s-1.2,2-2.6,1.8c1.199,1.8,2.399,3.8,3,5h3.5
		c-0.4-0.5-2.801-3.6-3.101-4.1C105.426,29.182,106.326,28.283,106.326,27.083z"/>
	<path d="M107.726,25.682c1.5-0.1,2.1-0.199,3.2-0.199c0,1,0.1,2.699,0.1,3.3c0,0.899,0,3.7-0.2,5.2h3.301c-0.2-1.5-0.2-4.4-0.2-5.2
		c0-0.601,0-2.2,0.1-3.3c1.101,0,1.7,0.1,3.101,0.199v-1.6h-9.4V25.682z"/>
	<path d="M119.526,24.083c0,1.1,0.101,3.8,0.101,4.7c0,0.8,0,3.6-0.2,5.1h3.2c-0.101-1.3-0.101-4.2-0.101-5.1c0-1,0-3.601,0.101-4.7
		H119.526z"/>
	<path d="M128.126,26.483c0-0.4,0.1-0.801,1.199-0.801c1.4,0,2.4,0.5,3.5,1.101v-2.5c-0.699-0.2-1.899-0.4-3.199-0.4
		c-2.601,0-4.301,1-4.4,2.7c0,3.2,5.6,3,5.6,4.9c0,0.699-0.5,1-1.3,1c-1,0-2-0.301-4.1-1.301v2.4c0.899,0.3,2.2,0.6,3.5,0.6
		c3,0,4.8-1.199,4.8-3.1C133.726,28.182,128.126,28.182,128.126,26.483z"/>
	
		<radialGradient id="SVGID_3_" cx="385.8262" cy="-264.0654" r="53.0115" gradientTransform="matrix(0.7827 0 0 -0.7827 -271.233 -199.4691)" gradientUnits="userSpaceOnUse">
		<stop  offset="0" style="stop-color:#73BA80"/>
		<stop  offset="0.0724" style="stop-color:#61B47A"/>
		<stop  offset="0.3639" style="stop-color:#1B9C63"/>
		<stop  offset="0.5" style="stop-color:#00925B"/>
		<stop  offset="0.727" style="stop-color:#008753"/>
		<stop  offset="1" style="stop-color:#007E4D"/>
	</radialGradient>
	<path fill="url(#SVGID_3_)" d="M1.726,36.382h34.8V1.568h-34.8V36.382z M22.526,27.283l-0.1,0.2
		c-0.861,0.765-1.545,1.44-2.477,2.197c0.027,0.299,0.095,0.558,0.177,0.803c-0.006,0.002-0.016,0.001-0.022,0.003
		c-0.029,0.054-0.078,0.196-0.078,0.196c-0.4,0.101-0.9,0.101-1.5,0.101c-1.1,0.7-2.5,1.1-3.6,1.399l0.1-0.199
		c0.629-0.36,1.104-0.729,1.701-1.232c-0.578-0.19-1.232-0.384-1.801-0.668l0.1-0.2c0.277-0.03,0.575-0.032,0.878-0.029
		c0.7-0.047,1.335-0.155,2.122-0.37c0.7-0.7,1.1-1.301,1.7-2.101c0,0.5,0,0.9,0.1,1.4c1-0.5,1.8-1,2.7-1.601
		c-0.201,0.179-0.389,0.351-0.575,0.521C22.15,27.56,22.345,27.418,22.526,27.283z M18.926,11.068
		c0.311-0.154,0.675-0.309,1.06-0.462c1.925-0.907,4.677-1.677,6.401-1.978c-0.975-0.834-4.147-2.498-4.96-2.859l0.1-0.201
		c0.099,0.011,0.206,0.031,0.306,0.045c-0.119-0.059-0.227-0.109-0.306-0.145c3,0.2,6.7,1.4,8.5,2.5c0.7-0.3,1.4-0.3,2.7-0.4
		c-0.055,0.11-0.1,0.209-0.145,0.305c0.017-0.002,0.028-0.003,0.044-0.004c0,0-0.196,0.74-1.453,1.686
		c0.236,1.199-0.429,5.189-1.051,6.932c-0.1,0.318-0.2,0.59-0.296,0.783c-0.1-2.301-0.3-5.101-1.1-6.301
		c-2.1,1.301-2.8,1.4-5.1,2.801l0.1-0.301c0.866-0.938,1.418-1.513,1.96-2.209c0.077-0.104,0.157-0.209,0.237-0.316
		c0.131-0.18,0.264-0.366,0.403-0.574c-2.2,0.1-5.3,0.4-7.5,0.9L18.926,11.068z M7.526,14.568l0.2-0.199
		c0.066-0.02,0.147-0.037,0.229-0.054c0.671-0.28,2.143-0.546,3.271-0.546c1.2,0,1.9,0,1.9,0c1-0.9,2.7-1.601,3.2-1.701
		c-0.048,0.061-0.095,0.141-0.143,0.211c0.013-0.002,0.031-0.008,0.042-0.01c0,0-0.44,0.71-0.742,1.708
		c2.072,0.271,3.84,1.077,4.82,1.606c0.413,0.166,0.735,0.305,0.922,0.385l-0.1,0.2c-2.8-0.5-4.2-0.399-5.3-0.3
		c-1,0.1-1.2,0.199-1.2,0.199c-0.6,1.301-0.9,3.402-1.1,4.207l-0.09,0.136c-0.005,0.038-0.009,0.065-0.009,0.065
		c-0.004-0.01-0.009-0.021-0.013-0.032l-0.087,0.132c-0.5-1.206-1.2-3.707-1.2-3.707c-1.4,0.8-4.6,3.807-4.6,3.807
		c1.555-3.206,3.175-4.803,3.445-5.055c0.021-0.021,0.035-0.035,0.053-0.054C10.422,14.967,8.725,14.568,7.526,14.568z
		 M5.226,26.882c0.029-0.018,0.064-0.024,0.094-0.04c-0.032-0.021-0.062-0.038-0.094-0.06c0.56-0.279,1.125-0.472,1.847-0.659
		c-0.213-1.267-0.129-2.487,0.053-4.041l0.075-0.149c0.009-0.088,0.015-0.162,0.025-0.252c0.4,1.701,0.7,2.901,1.4,4.102
		c0.9-0.101,1.6-0.2,2.6-0.4c-0.028,0.043-0.048,0.078-0.076,0.119c0.026-0.005,0.049-0.014,0.076-0.019l-0.1,0.199
		c-0.333,0.444-0.569,0.827-0.769,1.216c-0.117,0.252-0.227,0.505-0.332,0.784c1,0.9,1.9,1.4,3.1,1.9l-0.1,0.2
		c-1.234,0-2.202-0.184-3.323-0.458c-0.036,0.636,0.054,1.178,0.224,1.857c-0.068-0.068-0.124-0.134-0.188-0.201
		c0.029,0.099,0.058,0.195,0.088,0.302l-0.1,0.2c-0.9-0.9-1.5-1.7-2-2.9c-1-0.5-1.7-0.9-2.6-1.5L5.226,26.882z"/>
	<path fill="#1A171B" d="M31.126,9.369c0.02,0.049,0.034,0.116,0.047,0.186c1.257-0.945,1.453-1.686,1.453-1.686
		c-0.017,0.001-0.028,0.002-0.044,0.004C32.382,8.296,32.188,8.633,31.126,9.369z"/>
	<path fill="#1A171B" d="M28.826,10.769c-2.2,1.299-2.8,1.399-5.1,2.799c0.964-1.032,1.454-1.641,1.96-2.309
		c-0.542,0.696-1.094,1.271-1.96,2.209l-0.1,0.301c2.3-1.4,3-1.5,5.1-2.801c0.8,1.2,1,4,1.1,6.301
		c0.096-0.193,0.196-0.465,0.296-0.783c-0.066,0.186-0.132,0.354-0.196,0.482C29.826,14.668,29.726,11.968,28.826,10.769z"/>
	<path fill="#1A171B" d="M25.923,10.943c0.156-0.209,0.318-0.428,0.503-0.674c-2.2,0.1-5.3,0.399-7.5,0.899
		c0.303-0.191,0.67-0.378,1.06-0.562c-0.384,0.153-0.749,0.308-1.06,0.462l-0.1,0.201c2.2-0.5,5.3-0.801,7.5-0.9
		C26.187,10.577,26.055,10.763,25.923,10.943z"/>
	<path fill="#1A171B" d="M21.832,5.613c-0.101-0.014-0.208-0.034-0.306-0.045l-0.1,0.201c0.813,0.361,3.986,2.025,4.96,2.859
		c0.111-0.019,0.237-0.045,0.339-0.061C26.27,7.929,23.074,6.212,21.832,5.613z"/>
	<path fill="#1A171B" d="M9.703,29.325c1.121,0.274,2.089,0.458,3.323,0.458l0.1-0.2c-1.3-0.1-2.3-0.2-3.4-0.6
		C9.711,29.103,9.709,29.211,9.703,29.325z"/>
	<path fill="#1A171B" d="M11.126,25.682l0.1-0.199c-0.026,0.005-0.049,0.014-0.076,0.019c-0.346,0.527-0.59,0.961-0.793,1.396
		C10.557,26.509,10.793,26.126,11.126,25.682z"/>
	<path fill="#1A171B" d="M9.726,31.483l0.1-0.2c-0.031-0.106-0.059-0.203-0.088-0.302c-0.791-0.82-1.35-1.589-1.812-2.698
		c-0.964-0.482-1.745-0.876-2.606-1.44c-0.03,0.016-0.065,0.022-0.094,0.04l-0.1,0.2c0.9,0.6,1.6,1,2.6,1.5
		C8.226,29.783,8.826,30.583,9.726,31.483z"/>
	<path fill="#1A171B" d="M7.201,21.933l-0.075,0.149c-0.183,1.554-0.266,2.774-0.053,4.041c0.052-0.014,0.099-0.027,0.153-0.041
		C6.941,24.752,7.021,23.588,7.201,21.933z"/>
	<path fill="#1A171B" d="M15.826,15.769c-1,0.1-1.2,0.199-1.2,0.199c-0.733,1.467-1.129,4.023-1.19,4.442l0.09-0.136
		c0.2-0.805,0.5-2.906,1.1-4.207c0,0,0.2-0.1,1.2-0.199c1.1-0.1,2.5-0.2,5.3,0.3l0.1-0.2c-0.187-0.08-0.509-0.219-0.922-0.385
		c0.52,0.281,0.822,0.484,0.822,0.484C18.326,15.568,16.926,15.668,15.826,15.769z"/>
	<path fill="#1A171B" d="M15.484,13.977c0.302-0.998,0.742-1.708,0.742-1.708c-0.012,0.002-0.03,0.008-0.042,0.01
		c-0.348,0.515-0.67,1.25-0.757,1.689C15.446,13.97,15.465,13.974,15.484,13.977z"/>
	<path fill="#1A171B" d="M7.626,20.576c1.403-2.812,2.794-4.39,3.345-4.955c-0.27,0.252-1.89,1.849-3.445,5.055
		c0,0,3.2-3.007,4.6-3.807c0,0,0.7,2.501,1.2,3.707l0.087-0.132c-0.499-1.218-1.188-3.675-1.188-3.675
		C10.826,17.568,7.626,20.576,7.626,20.576z"/>
	<path fill="#1A171B" d="M11.226,15.369c-0.6-0.6-2.2-0.9-3.4-1c0.036-0.019,0.086-0.036,0.128-0.054
		c-0.081,0.017-0.162,0.034-0.229,0.054l-0.2,0.199c1.199,0,2.896,0.399,3.498,0.999C11.143,15.447,11.226,15.369,11.226,15.369z"/>
	<path fill="#1A171B" d="M15.026,31.983l-0.1,0.199c1.1-0.3,2.5-0.699,3.6-1.399c0.6,0,1.1,0,1.5-0.101c0,0,0.048-0.143,0.078-0.196
		c-0.396,0.095-0.887,0.097-1.478,0.097C17.526,31.283,16.126,31.682,15.026,31.983z"/>
	<path fill="#1A171B" d="M15.026,29.882l-0.1,0.2c0.568,0.284,1.223,0.478,1.801,0.668c0.067-0.057,0.128-0.107,0.199-0.168
		C16.326,30.382,15.626,30.182,15.026,29.882z"/>
	<path fill="#1A171B" d="M15.026,29.882c0.313,0,0.6-0.011,0.878-0.029C15.601,29.85,15.303,29.852,15.026,29.882z"/>
	<path fill="#1A171B" d="M19.949,29.68c0.932-0.757,1.616-1.433,2.477-2.197l0.1-0.2c-0.181,0.136-0.375,0.277-0.575,0.421
		c-0.649,0.595-1.247,1.157-2.024,1.779C19.926,29.556,19.943,29.613,19.949,29.68z"/>
	<path fill="#FFFFFF" d="M26.426,10.269c-0.185,0.246-0.347,0.465-0.503,0.674c-0.08,0.107-0.16,0.213-0.237,0.316
		c-0.506,0.668-0.996,1.276-1.96,2.309c2.3-1.399,2.9-1.5,5.1-2.799c0.9,1.199,1,3.899,1.1,6.199
		c0.064-0.128,0.13-0.297,0.196-0.482c0.622-1.742,1.287-5.732,1.051-6.932c-0.013-0.069-0.027-0.137-0.047-0.186
		c1.062-0.735,1.256-1.072,1.456-1.496c0.045-0.096,0.09-0.194,0.145-0.305c-1.3,0.101-2,0.101-2.7,0.4c-1.8-1.1-5.5-2.3-8.5-2.5
		c0.079,0.035,0.187,0.086,0.306,0.145c1.242,0.6,4.438,2.316,4.894,2.955c-0.102,0.016-0.228,0.042-0.339,0.061
		c-1.724,0.301-4.476,1.07-6.401,1.978c-0.39,0.185-0.756,0.371-1.06,0.562C21.126,10.668,24.226,10.369,26.426,10.269z"/>
	<path fill="#FFFFFF" d="M9.738,30.981c0.064,0.067,0.12,0.133,0.188,0.201c-0.17-0.68-0.26-1.222-0.224-1.857
		c0.006-0.113,0.008-0.222,0.023-0.342c1.1,0.399,2.1,0.5,3.4,0.6c-1.2-0.5-2.1-1-3.1-1.9c0.104-0.279,0.214-0.532,0.332-0.784
		c0.203-0.436,0.447-0.869,0.793-1.396c0.027-0.041,0.047-0.076,0.076-0.119c-1,0.2-1.7,0.3-2.6,0.4c-0.7-1.2-1-2.4-1.4-4.102
		c-0.01,0.09-0.016,0.164-0.025,0.252c-0.18,1.655-0.259,2.819,0.025,4.149c-0.054,0.014-0.101,0.027-0.153,0.041
		c-0.721,0.188-1.287,0.38-1.847,0.659c0.032,0.021,0.062,0.038,0.094,0.06c0.861,0.564,1.642,0.958,2.606,1.44
		C8.388,29.392,8.947,30.161,9.738,30.981z"/>
	<path fill="#FFFFFF" d="M7.626,20.576c0,0,3.2-3.008,4.6-3.807c0,0,0.688,2.457,1.188,3.675c0.004,0.011,0.009,0.022,0.013,0.032
		c0,0,0.004-0.027,0.009-0.065c0.062-0.419,0.458-2.976,1.19-4.442c0,0,0.2-0.1,1.2-0.199c1.1-0.101,2.5-0.201,5.3,0.299
		c0,0-0.302-0.203-0.822-0.484c-0.979-0.529-2.748-1.336-4.82-1.606c-0.02-0.003-0.039-0.007-0.058-0.009
		c0.087-0.439,0.41-1.175,0.757-1.689c0.048-0.07,0.094-0.15,0.143-0.211c-0.5,0.101-2.2,0.801-3.2,1.701c0,0-0.7,0-1.9,0
		c-1.129,0-2.6,0.266-3.271,0.546c-0.042,0.018-0.093,0.035-0.128,0.054c1.2,0.1,2.8,0.4,3.4,1c0,0-0.083,0.078-0.202,0.198
		c-0.019,0.019-0.033,0.032-0.053,0.054C10.42,16.186,9.029,17.763,7.626,20.576z"/>
	<path fill="#FFFFFF" d="M19.826,28.783c-0.1-0.5-0.1-0.9-0.1-1.4c-0.6,0.8-1,1.4-1.7,2.101c-0.787,0.215-1.422,0.323-2.122,0.37
		c-0.278,0.019-0.565,0.029-0.878,0.029c0.6,0.3,1.3,0.5,1.9,0.7c-0.071,0.061-0.132,0.111-0.199,0.168
		c-0.597,0.504-1.072,0.872-1.701,1.232c1.1-0.301,2.5-0.7,3.6-1.4c0.59,0,1.081-0.002,1.478-0.097
		c0.007-0.002,0.016-0.001,0.022-0.003c-0.082-0.245-0.15-0.504-0.177-0.803c-0.006-0.067-0.023-0.124-0.023-0.197
		c0.777-0.622,1.375-1.185,2.024-1.779c0.187-0.171,0.375-0.343,0.575-0.521C21.626,27.783,20.826,28.283,19.826,28.783z"/>
</g>
</svg>
