<?xml version="1.0" standalone="no"?>
<!DOCTYPE svg PUBLIC "-//W3C//DTD SVG 1.1//EN" "http://www.w3.org/Graphics/SVG/1.1/DTD/svg11.dtd" >
<svg xmlns="http://www.w3.org/2000/svg">
<metadata></metadata>
<defs>
<font id="bnpp_sansbold" horiz-adv-x="1085" >
<font-face units-per-em="2048" ascent="1546" descent="-502" />
<missing-glyph horiz-adv-x="524" />
<glyph unicode="&#xfb01;" horiz-adv-x="1228" d="M-74 -379l31 258q29 -10 56.5 -18t56.5 -8q37 0 63.5 22.5t26.5 77.5v889h-135v254h135v71q0 111 33.5 189t93 127t140.5 72.5t175 23.5q35 0 63.5 -2t63.5 -8l-22 -266q-37 10 -70 10q-63 0 -105.5 -29t-42.5 -104v-84h615v-1096h-330v842h-285v-936q0 -178 -91 -259 t-232 -81q-61 0 -122.5 14t-117.5 41zM774 1227v289h330v-289h-330z" />
<glyph unicode="&#xfb02;" horiz-adv-x="1269" d="M-74 -379l31 258q29 -10 56.5 -18t56.5 -8q37 0 63.5 22.5t26.5 77.5v889h-135v254h135v71q0 111 33.5 189t93 127t140.5 72.5t175 23.5q35 0 63.5 -2t63.5 -8l-22 -266q-37 10 -70 10q-63 0 -105.5 -29t-42.5 -104v-84h203l-20 -254h-183v-920q0 -98 -26.5 -165.5 t-72.5 -109.5t-108.5 -60.5t-136.5 -18.5q-53 0 -110.5 13t-108.5 40zM770 324v1171l330 41v-1184q0 -45 21.5 -63.5t56.5 -18.5q31 0 52 6.5t48 18.5l8 -266q-59 -35 -113.5 -46.5t-119.5 -11.5q-147 0 -215 91.5t-68 261.5z" />
<glyph horiz-adv-x="2048" />
<glyph horiz-adv-x="2048" />
<glyph unicode="&#xd;" horiz-adv-x="536" />
<glyph unicode=" "  horiz-adv-x="524" />
<glyph unicode="&#x09;" horiz-adv-x="524" />
<glyph unicode="&#xa0;" horiz-adv-x="524" />
<glyph unicode="!" horiz-adv-x="634" d="M137 1434h359l-27 -977h-305zM150 0v328h333v-328h-333z" />
<glyph unicode="&#x22;" horiz-adv-x="940" d="M104 948v486h283v-486h-283zM550 948v486h283v-486h-283z" />
<glyph unicode="#" horiz-adv-x="1288" d="M0 342l43 250h197l43 246h-197l45 252h197l59 346h270l-59 -346h223l60 346h270l-59 -346h196l-45 -252h-196l-43 -246h194l-43 -250h-197l-59 -342h-270l59 342h-223l-59 -342h-271l60 342h-195zM510 592h223l43 246h-223z" />
<glyph unicode="$" d="M23 246l165 239q72 -78 155 -122t171 -44q51 0 89 17.5t38 69.5q0 35 -42 59t-104.5 49t-136 55.5t-136 77.5t-104.5 117t-42 174q0 166 93 266.5t253 126.5v205h246v-211q94 -18 157.5 -61t101.5 -100.5t56 -121t25 -124.5l-312 -41q-4 37 -12 69.5t-25.5 57t-45 39 t-66.5 14.5q-49 0 -87 -22.5t-38 -82.5q0 -47 44 -77.5t109.5 -57t143.5 -55.5t143.5 -71t109.5 -102.5t44 -152.5q0 -172 -94.5 -267t-253.5 -124v-225h-246v219q-123 16 -223.5 73.5t-175.5 133.5z" />
<glyph unicode="%" horiz-adv-x="1626" d="M35 1090q0 188 85 281t238 93q160 0 244 -92t84 -282q0 -188 -85 -283.5t-243 -95.5q-154 0 -238.5 93t-84.5 286zM231 0l912 1434h252l-914 -1434h-250zM270 1087q0 -170 90 -169q91 -1 91 169t-91 170q-90 0 -90 -170zM940 348q0 190 85 283.5t239 93.5 q160 0 243.5 -93t83.5 -284q0 -186 -85 -281.5t-242 -95.5q-154 0 -239 92t-85 285zM1176 348q0 -170 90 -170t90 168q0 172 -90 172t-90 -170z" />
<glyph unicode="&#x26;" horiz-adv-x="1198" d="M4 399q0 123 62.5 218.5t181.5 154.5q-63 72 -95 145.5t-32 161.5q0 84 28.5 155t83 121t133 78.5t179.5 28.5q119 0 202.5 -31.5t135 -85t75 -121t23.5 -139.5q0 -123 -72.5 -216t-197.5 -158l155 -162q10 25 15.5 55.5t5.5 59.5v30h266v-28q0 -98 -22.5 -191.5 t-57.5 -148.5l336 -326h-397l-115 106q-66 -63 -162 -99t-215 -36q-139 0 -237.5 34t-160 91.5t-90 135t-28.5 167.5zM342 408q0 -80 55.5 -120t130.5 -40q96 0 158 63l-244 258q-45 -31 -72.5 -67.5t-27.5 -93.5zM434 1090q0 -61 23.5 -101.5t60.5 -85.5q84 41 117 83 t33 95q0 59 -30 92t-95 33q-12 0 -31.5 -5t-36 -18.5t-29 -36t-12.5 -56.5z" />
<glyph unicode="'" horiz-adv-x="493" d="M104 948v486h283v-486h-283z" />
<glyph unicode="(" horiz-adv-x="702" d="M45 520q0 176 32 330t83 282t114.5 230t126.5 174h326q-74 -78 -143.5 -185.5t-125 -238.5t-88 -280.5t-32.5 -309.5t32.5 -309.5t88 -280.5t125 -239.5t143.5 -184.5h-326q-63 72 -126.5 174.5t-114.5 230.5t-83 280.5t-32 326.5z" />
<glyph unicode=")" horiz-adv-x="702" d="M-25 -492h326q63 72 126.5 174.5t114.5 230.5t83 280.5t32 326.5q0 176 -32 330t-83 282t-114.5 230t-126.5 174h-326q74 -78 143.5 -185.5t125 -238.5t88 -280.5t32.5 -309.5t-32.5 -309.5t-88 -280.5t-125 -239.5t-143.5 -184.5z" />
<glyph unicode="*" horiz-adv-x="919" d="M47 938l213 117l-213 119l103 174l217 -138l-9 224h201l-4 -224l215 136l100 -172l-215 -121l217 -113l-102 -178l-217 141l6 -223h-201l9 223l-217 -139z" />
<glyph unicode="+" d="M104 543v276h299v307h277v-307h301v-276h-301v-307h-277v307h-299z" />
<glyph unicode="," horiz-adv-x="493" d="M-29 -270l142 598h352l-223 -598h-271z" />
<glyph unicode="-" horiz-adv-x="829" d="M121 543v276h588v-276h-588z" />
<glyph unicode="." horiz-adv-x="493" d="M80 0v328h334v-328h-334z" />
<glyph unicode="/" horiz-adv-x="815" d="M6 0l520 1434h283l-522 -1434h-281z" />
<glyph unicode="0" d="M29 713q0 197 36.5 338t105.5 233t164 135t212 43q119 0 213 -40t158.5 -129t99.5 -230t35 -344q0 -205 -37 -347.5t-104.5 -231.5t-163 -129t-213.5 -40q-113 0 -206 40t-160 129t-103.5 229.5t-36.5 343.5zM373 715q0 -242 41 -343.5t127 -101.5q88 0 129 102.5 t41 346.5q0 240 -41 342t-129 102q-86 0 -127 -107.5t-41 -340.5z" />
<glyph unicode="1" d="M121 0v307h309v752l-309 -156v330l399 201h236v-1127h291v-307h-926z" />
<glyph unicode="2" d="M31 1032q4 86 33.5 164t88 137.5t146.5 94t211 34.5q227 0 352 -111.5t125 -332.5q0 -127 -60.5 -233.5t-164.5 -219.5l-234 -252h490v-313h-944v270l444 498q61 68 89 127t28 111q0 45 -11.5 74.5t-28.5 48t-40 25.5t-47 7q-70 0 -110 -39t-42 -131z" />
<glyph unicode="3" d="M31 1032q4 86 33.5 164t88 137.5t146.5 94t211 34.5q227 0 356 -108.5t129 -300.5q0 -92 -41 -173t-149 -128q61 -18 103 -52t67.5 -78t37 -98.5t11.5 -113.5q0 -111 -38 -194t-104.5 -137t-157.5 -81t-198 -27q-166 0 -286.5 54.5t-206.5 140.5l141 258q72 -74 158 -114 t172 -40q78 0 128 34t50 108q0 82 -40 118.5t-128 36.5h-188v285h159q78 0 117 44t39 120q0 59 -29.5 103t-105.5 44q-70 0 -109 -40t-41 -132z" />
<glyph unicode="4" d="M23 285v290l458 859h437v-865h147v-284h-147v-285h-318v285h-577zM319 569h281v525z" />
<glyph unicode="5" d="M41 160l141 258q66 -66 130.5 -107t158.5 -41q82 0 133 43t51 121q0 90 -56 131t-148 41q-43 0 -81 -6t-83 -22l-168 94v762h829v-308h-520v-235q16 2 32.5 3t31.5 1q145 0 243.5 -35t156.5 -96.5t82.5 -144t24.5 -179.5q0 -223 -130 -346t-359 -123q-164 0 -274.5 52.5 t-194.5 136.5z" />
<glyph unicode="6" d="M55 713q0 199 39 340t107.5 232t166 134t214.5 43q207 0 323.5 -108.5t132.5 -315.5l-315 -26q-10 70 -45 110.5t-105 40.5q-92 0 -129.5 -80.5t-37.5 -236.5q49 25 103 37t130 12q74 0 148.5 -22.5t135 -72.5t97.5 -132t37 -199q0 -125 -37 -218t-102.5 -155.5 t-154.5 -93.5t-194 -31q-115 0 -209 40t-161.5 129t-105.5 229.5t-38 343.5zM401 569q2 -137 39 -218t133 -81q70 0 108 49.5t38 135.5q0 158 -146 157q-45 0 -92 -11.5t-80 -31.5z" />
<glyph unicode="7" d="M66 1126v308h958v-250l-541 -1184h-383l539 1126h-573z" />
<glyph unicode="8" d="M25 412q0 117 48 202.5t150 130.5q-72 45 -116 119t-44 178q0 207 128 313.5t352 106.5q223 0 351 -106.5t128 -313.5q0 -104 -44 -177.5t-116 -119.5q102 -45 150.5 -131t48.5 -202q0 -100 -39 -181t-107.5 -138.5t-163.5 -89.5t-208 -32t-208 32t-164 89.5t-107.5 138 t-38.5 181.5zM365 430q0 -84 48 -127t128 -43q84 0 132 43t48 127t-42 128t-136 44t-136 -44t-42 -128zM395 1010q0 -68 38 -115t110 -47t109.5 47t37.5 115q0 161 -147 161t-148 -161z" />
<glyph unicode="9" d="M27 162l141 260q59 -66 141 -109t168 -43q55 0 93 21.5t59.5 60.5t31 94.5t9.5 122.5q-41 -16 -79 -25t-108 -9q-98 0 -181 25.5t-143.5 79.5t-94 136t-33.5 197q0 113 34.5 204t98 154.5t155 97t201.5 33.5q129 0 224.5 -41t159 -130t94 -231t30.5 -343q0 -193 -41 -333 t-111.5 -232.5t-168.5 -136.5t-211 -44q-160 0 -273.5 55.5t-195.5 135.5zM375 987q0 -78 38.5 -122t110.5 -44q86 0 158 39q-4 170 -40 236.5t-120 66.5q-74 0 -110.5 -49t-36.5 -127z" />
<glyph unicode=":" horiz-adv-x="493" d="M80 0v328h334v-328h-334zM80 770v328h334v-328h-334z" />
<glyph unicode=";" horiz-adv-x="493" d="M-29 -270l142 598h352l-221 -598h-273zM78 770v328h334v-328h-334z" />
<glyph unicode="&#x3c;" d="M104 500v350l877 246v-279l-612 -141l612 -144v-278z" />
<glyph unicode="=" d="M104 313v277h877v-277h-877zM104 750v276h877v-276h-877z" />
<glyph unicode="&#x3e;" d="M104 254l877 246v350l-877 246v-279l612 -141l-612 -144v-278z" />
<glyph unicode="?" horiz-adv-x="970" d="M35 1073q4 84 33.5 155.5t87 124t143.5 81t203 28.5q104 0 185 -29.5t136.5 -81t84 -121t28.5 -151.5q0 -61 -14.5 -109t-38 -90t-56 -79t-69.5 -74q-39 -39 -65.5 -64.5t-43 -53t-24 -62.5t-7.5 -90h-313q2 88 10.5 145t31 103.5t61 88.5t100.5 97q39 35 64.5 74 t25.5 94q0 41 -28.5 71.5t-86.5 30.5q-66 0 -100.5 -44t-36.5 -103q-78 14 -155.5 29.5t-155.5 29.5zM295 0v328h334v-328h-334z" />
<glyph unicode="@" horiz-adv-x="1581" d="M55 561q0 166 53.5 302t150.5 231.5t233.5 147.5t302.5 52t302 -49t233 -139t150.5 -216t53.5 -280q0 -233 -97.5 -360t-262.5 -127q-72 0 -132.5 26.5t-87.5 90.5q-45 -45 -100 -72t-119 -27q-57 0 -115.5 19.5t-106.5 67.5t-77.5 130t-29.5 209t37.5 208t94 127 t122 63.5t122.5 17.5q109 0 193 -29.5t162 -79.5v-425q0 -49 19.5 -71t60.5 -22q59 0 86.5 69t27.5 185q0 119 -40 213.5t-110.5 159t-170 99t-215.5 34.5q-117 0 -217.5 -37t-174 -108.5t-115.5 -175t-42 -234.5q0 -143 48 -251.5t133 -181.5t198.5 -109.5t242.5 -36.5 q94 0 194.5 19t199.5 60l57 -172q-111 -47 -227.5 -68.5t-229.5 -21.5q-164 0 -310 48.5t-257 143.5t-175.5 237.5t-64.5 332.5zM666 567q0 -117 31.5 -158.5t70.5 -41.5q70 0 115 65v303q-20 10 -42 16.5t-55 6.5q-20 0 -41.5 -8.5t-39 -30t-28.5 -58t-11 -94.5z" />
<glyph unicode="A" horiz-adv-x="1167" d="M-25 0l416 1434h387l414 -1434h-338l-72 264h-442l-72 -264h-293zM410 537h301l-152 559z" />
<glyph unicode="B" horiz-adv-x="1198" d="M141 0v1434h455q117 0 210 -17.5t157.5 -59.5t99.5 -112.5t35 -175.5q0 -117 -53.5 -207t-157.5 -131q123 -29 188.5 -103.5t65.5 -215.5q0 -223 -134.5 -317.5t-402.5 -94.5h-463zM467 283h131q96 0 142 33.5t46 115.5q0 88 -45 122t-143 34h-131v-305zM467 858h129 q78 0 121 33t43 119q0 49 -13.5 76.5t-36 42t-55 17.5t-69.5 3h-119v-291z" />
<glyph unicode="C" horiz-adv-x="1161" d="M57 727q0 387 147.5 561t430.5 174q223 0 351 -117.5t130 -365.5l-315 -27q-4 96 -42 153.5t-126 57.5q-131 0 -186.5 -100t-55.5 -336q0 -139 23.5 -227t66.5 -139.5t101.5 -71t126.5 -19.5q100 0 187 30t165 73l35 -281q-82 -47 -185.5 -84t-248.5 -37q-139 0 -252 43 t-191 134.5t-120 234.5t-42 344z" />
<glyph unicode="D" horiz-adv-x="1316" d="M141 0v1434h533q285 0 435.5 -167t150.5 -528q0 -199 -40 -339t-117 -229t-186.5 -130t-250.5 -41h-525zM467 293h188q63 0 114.5 16.5t85.5 64.5t52.5 134t18.5 225q0 127 -17.5 207t-52.5 124t-85 60.5t-116 16.5h-188v-848z" />
<glyph unicode="E" horiz-adv-x="1075" d="M141 0v1434h826v-293h-500v-285h475v-276h-475v-287h528v-293h-854z" />
<glyph unicode="F" horiz-adv-x="1052" d="M141 0v1434h852v-293h-526v-332h440v-287h-440v-522h-326z" />
<glyph unicode="G" horiz-adv-x="1323" d="M57 723q0 205 46.5 345t130 228t200.5 127t258 39q135 0 231.5 -33.5t158 -97t91 -152.5t29.5 -200l-311 -27q-8 211 -209 211q-61 0 -112.5 -21.5t-87.5 -72.5t-55 -133t-19 -205q0 -139 17 -228t51 -141.5t85 -72t117 -19.5q70 0 124 24.5t91 53.5v166h-223v277h551 v-791h-295v86q-47 -47 -125 -81t-187 -34q-106 0 -206.5 36t-178 122t-125 230.5t-47.5 363.5z" />
<glyph unicode="H" horiz-adv-x="1386" d="M141 0v1434h326v-566h455v566h323v-1434h-323v557h-455v-557h-326z" />
<glyph unicode="I" horiz-adv-x="608" d="M141 0v1434h326v-1434h-326z" />
<glyph unicode="J" horiz-adv-x="647" d="M-27 20l43 277q16 -10 46 -18.5t55 -8.5q37 0 58.5 19.5t21.5 75.5v1069h325v-1108q0 -170 -90 -262.5t-233 -92.5q-61 0 -117.5 11.5t-108.5 37.5z" />
<glyph unicode="K" horiz-adv-x="1226" d="M141 0v1434h326v-592l424 592h348l-410 -570l437 -864h-379l-277 571l-143 -198v-373h-326z" />
<glyph unicode="L" horiz-adv-x="950" d="M141 0v1434h326v-1141h461v-293h-787z" />
<glyph unicode="M" horiz-adv-x="1738" d="M84 0l129 1434h371l286 -865l283 865h371l129 -1434h-328l-65 862l-246 -747h-293l-244 747l-65 -862h-328z" />
<glyph unicode="N" horiz-adv-x="1423" d="M141 0v1434h332l490 -869v869h319v-1434h-332l-491 850v-850h-318z" />
<glyph unicode="O" horiz-adv-x="1275" d="M57 715q0 207 45 349t123 231t184.5 128t227.5 39q123 0 229.5 -39t184 -128t123 -231t45.5 -349t-45.5 -348.5t-124 -229.5t-185 -127t-229.5 -39q-121 0 -226.5 39t-183.5 127t-123 229.5t-45 348.5zM383 717q0 -133 19.5 -219t53 -137.5t81 -71t100.5 -19.5 q55 0 99 19.5t75 71t47 137.5t16 219t-16 220t-47 137t-75 69.5t-99 19.5q-53 0 -100.5 -19.5t-81 -69.5t-53 -137t-19.5 -220z" />
<glyph unicode="P" horiz-adv-x="1161" d="M141 0v1434h424q141 0 240.5 -22.5t162 -77t92.5 -145.5t30 -231q0 -266 -129.5 -387.5t-372.5 -121.5q-41 0 -70 3t-51 7v-459h-326zM467 733q16 -4 33.5 -6t50.5 -2q51 0 92 9t68.5 33t42 64.5t14.5 104.5q0 68 -11.5 111t-36 67.5t-63.5 33.5t-92 9h-98v-424z" />
<glyph unicode="Q" horiz-adv-x="1275" d="M57 715q0 207 45 349t123 231t184.5 128t227.5 39q123 0 229.5 -39t184 -128t123 -231t45.5 -349q0 -150 -25 -264.5t-69 -199.5t-105.5 -142.5t-134.5 -90.5l205 -366h-365l-156 321q-109 10 -203 55.5t-162.5 133.5t-107.5 224t-39 329zM383 717q0 -133 19.5 -219 t53 -137.5t81 -71t100.5 -19.5q55 0 99 19.5t75 71t47 137.5t16 219t-16 220t-47 137t-75 69.5t-99 19.5q-53 0 -100.5 -19.5t-81 -69.5t-53 -137t-19.5 -220z" />
<glyph unicode="R" horiz-adv-x="1191" d="M141 0v1434h439q117 0 215 -19.5t170.5 -69t112.5 -135.5t40 -219q0 -90 -15.5 -156.5t-44 -115.5t-67.5 -83t-86 -58l256 -578h-358l-213 500q-39 0 -74 2t-51 4v-506h-324zM465 795q14 -2 24.5 -4.5t21.5 -3.5t24.5 -1h37.5q205 0 205 189q0 102 -48 138t-152 36h-113 v-354z" />
<glyph unicode="S" horiz-adv-x="1110" d="M47 172l141 258q78 -80 170.5 -120t184.5 -40q74 0 112.5 23.5t38.5 77.5q0 51 -46 89t-115.5 71.5t-149.5 72.5t-149.5 95.5t-115.5 136t-46 196.5q0 100 36.5 180t100 135.5t150.5 85t190 29.5q141 0 232 -41t144.5 -105.5t76 -144t28.5 -159.5l-317 -43q-6 88 -39 141 t-127 53q-66 0 -105 -28.5t-39 -85.5q0 -59 46.5 -101.5t116 -79.5t150.5 -75.5t150.5 -91t115.5 -126t46 -178.5q0 -203 -125 -314.5t-364 -111.5q-166 0 -287 59.5t-205 141.5z" />
<glyph unicode="T" horiz-adv-x="1116" d="M35 1141v293h1046v-293h-360v-1141h-326v1141h-360z" />
<glyph unicode="U" horiz-adv-x="1347" d="M129 508v926h326v-930q0 -121 54 -177.5t165 -56.5t165 55.5t54 178.5v930h326v-926q0 -119 -31 -218.5t-97.5 -170t-170 -109.5t-246.5 -39t-245.5 39t-169 109.5t-98.5 170t-32 218.5z" />
<glyph unicode="V" horiz-adv-x="1228" d="M10 1434h359l270 -1035l268 1035h312l-400 -1434h-381z" />
<glyph unicode="W" horiz-adv-x="1861" d="M8 1434h348l168 -971l238 971h336l237 -971l168 971h346l-288 -1434h-398q-57 236 -115.5 467t-117.5 467l-234 -934h-397z" />
<glyph unicode="X" horiz-adv-x="1191" d="M-12 0l405 709l-397 725h375l237 -443l236 443h346l-406 -703l422 -731h-379l-245 444l-248 -444h-346z" />
<glyph unicode="Y" horiz-adv-x="1138" d="M-23 1434h361l235 -576l238 576h350l-428 -932v-502h-325v502z" />
<glyph unicode="Z" horiz-adv-x="1146" d="M53 0v215l594 926h-571v293h1005v-217l-594 -924h596v-293h-1030z" />
<glyph unicode="[" horiz-adv-x="655" d="M141 -471v2007h477v-248h-188v-1513h188v-246h-477z" />
<glyph unicode="\" horiz-adv-x="815" d="M0 1434l522 -1434h281l-520 1434h-283z" />
<glyph unicode="]" horiz-adv-x="655" d="M35 -225v-246h477v2007h-477v-248h188v-1513h-188z" />
<glyph unicode="^" horiz-adv-x="1089" d="M37 719l383 715h250l383 -715h-299l-207 373l-209 -373h-301z" />
<glyph unicode="_" horiz-adv-x="1091" d="M-10 -29h1102v-276h-1102v276z" />
<glyph unicode="`" horiz-adv-x="1024" d="M180 1536h320l184 -324h-262z" />
<glyph unicode="a" horiz-adv-x="1058" d="M53 281q0 195 147.5 291t401.5 102v74q0 61 -26.5 87.5t-79.5 26.5q-115 0 -115 -125l-289 25q4 90 38 158.5t90 114.5t132 68.5t162 22.5q106 0 185 -25.5t131.5 -70.5t77 -108.5t24.5 -139.5v-473q0 -33 15.5 -49t39.5 -16q29 0 54.5 9t60.5 32l14 -226 q-41 -41 -105.5 -65.5t-136.5 -24.5q-31 0 -65.5 8.5t-65 28t-52 49t-27.5 72.5q-61 -82 -148.5 -120t-177.5 -38q-59 0 -111.5 18.5t-91.5 57.5t-60.5 97.5t-21.5 138.5zM365 336q0 -98 100 -98q41 0 71.5 15t65.5 42v176q-47 0 -90 -8t-76 -24.5t-52 -41t-19 -61.5z" />
<glyph unicode="b" horiz-adv-x="1144" d="M125 135v1360l330 41v-492q59 31 130.5 54.5t145.5 23.5q72 0 136.5 -23.5t112.5 -86t76.5 -170t28.5 -275.5q0 -176 -43 -290.5t-114.5 -181t-164.5 -93.5t-194 -27q-123 0 -239.5 42t-204.5 118zM455 283q63 -43 137 -43q33 0 61.5 13t49 50t31.5 100.5t11 163.5 q0 92 -10 149.5t-30.5 89.5t-48 44t-62.5 12q-39 0 -70.5 -10t-68.5 -27v-542z" />
<glyph unicode="c" horiz-adv-x="987" d="M59 553q0 160 29 269.5t89.5 177t150.5 97t213 29.5q111 0 186.5 -29.5t122.5 -85t68.5 -132t21.5 -170.5q-74 -8 -146.5 -13.5t-144.5 -13.5q0 31 -5 63.5t-17.5 58t-34 42t-55.5 16.5q-37 0 -62.5 -12t-42 -47t-24 -96.5t-7.5 -159.5q0 -92 14.5 -151.5t41 -93.5 t63.5 -46t82 -12q90 0 170 23.5t133 60.5l31 -242q-88 -47 -180 -81t-221 -34q-115 0 -203 32t-148.5 101.5t-92.5 180t-32 268.5z" />
<glyph unicode="d" horiz-adv-x="1175" d="M59 543q0 295 111 439t289 144q66 0 122 -14t107 -39v422l328 41v-1227q0 -33 15.5 -49t39.5 -16q29 0 54.5 9t60.5 32l14 -226q-41 -41 -105.5 -64.5t-136.5 -23.5q-74 0 -136 39t-72 123q-66 -68 -145 -115t-175 -47q-72 0 -138.5 33t-118.5 102.5t-83 178t-31 258.5z M401 565q0 -147 41 -221t101 -74q45 0 78.5 18.5t66.5 47.5v493q-29 10 -62.5 21.5t-74.5 11.5q-31 0 -58.5 -10t-48 -41t-32 -89t-11.5 -157z" />
<glyph unicode="e" horiz-adv-x="1021" d="M59 541q0 307 125 446t351 139q115 0 194.5 -34.5t128.5 -98t71.5 -151.5t22.5 -195v-192h-549q10 -129 64.5 -178.5t146.5 -49.5q78 0 159 33t136 70l29 -244q-45 -25 -87 -45.5t-90 -35.5t-102.5 -24.5t-123.5 -9.5q-106 0 -193.5 32t-150 100.5t-97.5 176t-35 261.5z M403 657h242q0 111 -24.5 158t-94.5 47q-72 0 -95 -50t-28 -155z" />
<glyph unicode="f" horiz-adv-x="675" d="M-76 -379l33 258q27 -10 55.5 -18t57.5 -8q35 0 62.5 22.5t27.5 77.5v889h-135v254h135v71q0 109 33.5 187t93 128t140.5 73.5t177 23.5q66 0 138.5 -10t129.5 -31l-55 -260q-31 10 -81 22.5t-99 12.5q-63 0 -105.5 -32t-42.5 -101v-84h261l-35 -254h-226v-938 q0 -90 -24.5 -153.5t-68.5 -104.5t-103.5 -60.5t-128.5 -19.5q-59 0 -120.5 14t-119.5 41z" />
<glyph unicode="g" horiz-adv-x="1015" d="M-18 -236q0 86 50 141.5t115 84.5q-41 29 -65.5 68.5t-24.5 105.5q0 39 14.5 72.5t37 61.5t50 50.5t56.5 40.5q-63 53 -99 133t-36 187q0 94 30.5 171.5t86 132t134.5 84t175 29.5q47 0 88 -9t78 -21h358v-265l-129 17q14 -37 18.5 -67.5t4.5 -73.5q0 -94 -30 -172 t-85 -134.5t-133 -87t-172 -30.5q-23 0 -41.5 2t-40.5 8q-20 -12 -36.5 -28.5t-16.5 -39.5q0 -27 46 -35t115.5 -15t151.5 -19.5t151.5 -43t115.5 -88t46 -155.5t-41 -172t-113.5 -123t-170 -73.5t-209.5 -24.5q-246 0 -362.5 82t-116.5 206zM281 -197q0 -55 55 -77.5 t131 -22.5q39 0 75 7t63.5 19.5t44 30.5t16.5 41q0 37 -27 56.5t-70 30t-96 14.5t-104 12q-35 -16 -61.5 -45t-26.5 -66zM377 709q0 -104 33.5 -147.5t93.5 -43.5q55 0 89 42t34 147q0 57 -9.5 93t-24.5 56.5t-38.5 28.5t-50.5 8q-59 0 -93 -38t-34 -146z" />
<glyph unicode="h" horiz-adv-x="1169" d="M125 0v1495l330 41v-502q57 39 128.5 65.5t161.5 26.5q150 0 235 -81.5t85 -264.5v-780h-330v678q0 68 -38 95.5t-97 27.5q-35 0 -75 -10.5t-70 -22.5v-768h-330z" />
<glyph unicode="i" horiz-adv-x="579" d="M125 0v1096h330v-1096h-330zM125 1227v289h330v-289h-330z" />
<glyph unicode="j" horiz-adv-x="579" d="M-111 -381l31 260q29 -10 57.5 -18t57.5 -8q37 0 63.5 21.5t26.5 78.5v1143h330v-1215q0 -84 -27 -144.5t-71 -98t-103 -55t-125 -17.5q-59 0 -120.5 14t-119.5 39zM125 1227v289h330v-289h-330z" />
<glyph unicode="k" horiz-adv-x="1060" d="M125 0v1495l330 41v-823l290 383h338l-305 -443l346 -653h-374l-215 416l-80 -99v-317h-330z" />
<glyph unicode="l" horiz-adv-x="620" d="M121 324v1171l330 41v-1184q0 -45 21.5 -63.5t55.5 -18.5q31 0 52.5 6.5t48.5 18.5l8 -266q-59 -35 -113.5 -46.5t-120.5 -11.5q-147 0 -214.5 91.5t-67.5 261.5z" />
<glyph unicode="m" horiz-adv-x="1751" d="M125 0v1096h262v-119q63 59 149.5 104t198.5 45q190 0 264 -125q68 53 149 89t181 36q150 0 233 -81.5t83 -266.5v-778h-330v678q0 68 -33 95.5t-92 27.5q-35 0 -75 -9.5t-68 -23.5q2 -14 3 -27.5t1 -27.5v-713h-332v608q0 41 -2 77t-14.5 61.5t-38 40t-70.5 14.5 q-33 0 -71 -9.5t-68 -23.5v-768h-330z" />
<glyph unicode="n" horiz-adv-x="1171" d="M125 0v1096h262v-119q63 59 152.5 104t205.5 45q150 0 235 -81.5t85 -266.5v-778h-330v678q0 68 -38 95.5t-97 27.5q-35 0 -74 -10.5t-71 -22.5v-768h-330z" />
<glyph unicode="o" horiz-adv-x="1112" d="M61 547q0 301 129 440t367 139q242 0 368 -138t126 -443q0 -295 -131.5 -434.5t-362.5 -139.5q-236 0 -366 136.5t-130 439.5zM397 547q0 -180 40 -250t120 -70t119 70t39 248q0 92 -9.5 153.5t-30 97t-50 51t-68.5 15.5q-41 0 -70.5 -15.5t-49 -51t-30 -96t-10.5 -152.5 z" />
<glyph unicode="p" horiz-adv-x="1163" d="M125 -471v1567h262v-119q27 27 62.5 53.5t79.5 48t94.5 34.5t107.5 13q80 0 147.5 -24.5t116.5 -87t78 -171t29 -276.5q0 -164 -35 -277.5t-96.5 -184t-147.5 -102.5t-190 -32q-39 0 -89 8.5t-89 22.5v-416zM455 272q66 -32 131 -32h4q35 0 64.5 13t52 50t35 100.5 t12.5 163.5q0 92 -12.5 144.5t-34 80t-51 35t-62.5 7.5q-39 0 -70.5 -8.5t-68.5 -24.5v-529z" />
<glyph unicode="q" horiz-adv-x="1118" d="M59 543q0 147 31 256.5t86 182.5t131 108.5t166 35.5q94 0 161.5 -36.5t121.5 -75.5v82h258v-1510l-326 -57v528q-53 -37 -109.5 -61.5t-127.5 -24.5q-78 0 -150 28t-125 94.5t-85 176t-32 273.5zM401 537q0 -92 11.5 -150.5t31 -90.5t44 -43t49.5 -11q47 0 83.5 18.5 t67.5 44.5v486q-31 18 -63.5 31.5t-67.5 13.5q-90 0 -123 -81t-33 -218z" />
<glyph unicode="r" horiz-adv-x="892" d="M125 0v1096h262v-133q74 90 144.5 126.5t156.5 36.5q78 0 122 -34.5t65.5 -90t26.5 -124t5 -136.5l-286 -18q-2 35 -12.5 60.5t-45.5 25.5q-23 0 -52.5 -15.5t-55.5 -50.5v-743h-330z" />
<glyph unicode="s" horiz-adv-x="915" d="M37 119l94 233q76 -59 159 -92t148 -33q41 0 69 16.5t28 55.5q0 29 -34 53.5t-85 51t-109.5 57.5t-110 75t-85 102t-33.5 140q0 72 25.5 135.5t75.5 110.5t124 74.5t170 27.5q98 0 169 -27.5t118 -74.5t70.5 -108.5t29.5 -129.5l-260 -49q-4 66 -31.5 103t-89.5 37 q-41 0 -66.5 -18.5t-25.5 -59.5q0 -39 35 -66.5t87 -54.5t113.5 -55.5t113.5 -69.5t87 -98.5t35 -139.5q0 -74 -25.5 -136t-75.5 -108t-127 -73t-177 -27q-143 0 -243.5 44t-172.5 104z" />
<glyph unicode="t" horiz-adv-x="770" d="M8 840v256h158v178l319 92v-270h265l-37 -256h-228v-473q0 -41 20.5 -69t69.5 -28q41 0 78 12.5t76 32.5l57 -237q-66 -41 -141.5 -75t-193.5 -34q-63 0 -116.5 18.5t-93.5 54.5t-62.5 90t-22.5 126v582h-148z" />
<glyph unicode="u" horiz-adv-x="1097" d="M113 373v723h329v-738q0 -131 117 -131t117 131v738h330v-723q0 -98 -35 -173t-95.5 -126t-141.5 -77t-173 -26t-174 26t-142.5 77t-96 125.5t-35.5 173.5z" />
<glyph unicode="v" horiz-adv-x="1026" d="M-10 1096h350l192 -752l177 752h325l-332 -1096h-372z" />
<glyph unicode="w" horiz-adv-x="1599" d="M-10 1096h350l133 -707l168 707h360l162 -707q29 178 58.5 353.5t60.5 353.5h326l-287 -1096h-358l-158 721l-166 -721h-350z" />
<glyph unicode="x" horiz-adv-x="1013" d="M-18 0l315 545l-299 551h348l166 -332l176 332h342l-332 -535l314 -561h-359l-170 326l-178 -326h-323z" />
<glyph unicode="y" horiz-adv-x="1026" d="M-111 -385l78 264q35 -20 82 -31.5t88 -11.5q45 0 77 11.5t56.5 37t45 68.5t46.5 106l-391 1037h346l203 -664l195 664h319l-348 -1035q-43 -125 -91 -220t-109.5 -158.5t-141.5 -95t-186 -31.5q-61 0 -131 14t-138 45z" />
<glyph unicode="z" horiz-adv-x="964" d="M59 0v199l439 639h-430v260h839v-211l-440 -629h446v-258h-854z" />
<glyph unicode="{" horiz-adv-x="739" d="M27 397v269q74 0 120 22.5t46 93.5v449q0 172 84.5 252t238.5 80q59 0 113.5 -9.5t103.5 -31.5l-49 -238q-23 10 -53.5 17.5t-59.5 7.5q-37 0 -62.5 -19.5t-25.5 -68.5v-478q0 -72 -37.5 -130t-109.5 -81q72 -23 109.5 -80t37.5 -128v-480q0 -47 24.5 -66.5t63.5 -19.5 q29 0 58.5 7.5t54.5 17.5l49 -240q-98 -41 -203 -41q-66 0 -126 17.5t-107 56.5t-75.5 98.5t-28.5 143.5v467q0 72 -46.5 92t-119.5 20z" />
<glyph unicode="|" horiz-adv-x="577" d="M141 -471v2007h295v-2007h-295z" />
<glyph unicode="}" horiz-adv-x="739" d="M6 -457q98 -41 203 -41q66 0 126 17.5t107 56.5t75.5 98.5t28.5 143.5v467q0 72 46.5 92t119.5 20v269q-74 0 -120 22.5t-46 93.5v449q0 172 -84.5 252t-238.5 80q-59 0 -113.5 -9.5t-103.5 -31.5l49 -238q23 10 53.5 17.5t59.5 7.5q37 0 62.5 -19.5t25.5 -68.5v-478 q0 -72 37.5 -130t109.5 -81q-72 -23 -109.5 -80t-37.5 -128v-480q0 -47 -24.5 -66.5t-63.5 -19.5q-29 0 -58.5 7.5t-54.5 17.5z" />
<glyph unicode="~" d="M49 580q18 59 45 109t65 87t89 57.5t121 20.5q47 0 96 -11.5t94 -24.5t83 -24.5t63 -11.5q29 0 52 17.5t40 72.5l235 -79q-18 -61 -46 -111.5t-66.5 -86.5t-92 -56.5t-122.5 -20.5q-41 0 -84 11.5t-86 23.5t-83 23.5t-75 11.5q-29 0 -52.5 -15.5t-39.5 -74.5z" />
<glyph unicode="&#xa1;" horiz-adv-x="634" d="M137 -338h359l-27 977h-305zM150 768h333v328h-333v-328z" />
<glyph unicode="&#xa2;" d="M88 692q0 131 21.5 229.5t64.5 166t106.5 107.5t147.5 56v285h244v-279q170 -23 241.5 -132t71.5 -277l-293 -27q0 31 -5 64t-17.5 58.5t-35 41.5t-56.5 16q-37 0 -66 -12t-47.5 -47t-27.5 -96.5t-9 -159.5q0 -92 17.5 -150.5t46 -91t66.5 -45t81 -12.5q39 0 83 8 t86 21.5t79 31t65 35.5l31 -258q-72 -41 -145.5 -70.5t-165.5 -39.5v-295h-244v305q-162 37 -251 172t-89 395z" />
<glyph unicode="&#xa3;" d="M14 582v233h174q-4 63 -7 101t-4 59.5t-1 32v16.5q0 86 22.5 165t75 139.5t137.5 97t212 36.5q119 0 202.5 -32.5t136 -89t76 -132t23.5 -159.5l-293 -50q0 78 -36 121t-101 43q-78 0 -108.5 -40t-30.5 -107q0 -37 3 -86t11 -115h409v-233h-389q2 -41 4 -63.5t3.5 -34 t1.5 -15.5v-6q0 -61 -17.5 -102.5t-56.5 -81.5h575v-279h-983v225q80 41 123 93.5t43 123.5q0 25 -2 51.5t-10 88.5h-193z" />
<glyph unicode="&#xa4;" d="M16 317l172 170q-27 45 -38 93.5t-11 101.5t11.5 102.5t37.5 94.5l-172 170l160 157l168 -168q90 51 199 52q109 0 198 -52l168 168l160 -157l-170 -170q47 -86 47 -197q0 -106 -47 -193l170 -172l-160 -159l-168 170q-47 -29 -95 -40.5t-103 -11.5t-103.5 11.5 t-95.5 40.5l-168 -170zM385 682q0 -63 47 -111.5t111 -48.5q63 0 110 48.5t47 111.5t-47 111.5t-110 48.5t-110.5 -48.5t-47.5 -111.5z" />
<glyph unicode="&#xa5;" d="M-18 1434h348l215 -502l219 502h342l-303 -619h215v-233h-313v-582h-324v582h-326v233h226z" />
<glyph unicode="&#xa6;" horiz-adv-x="577" d="M141 332h295v-803h-295v803zM141 733v803h295v-803h-295z" />
<glyph unicode="&#xa7;" horiz-adv-x="1112" d="M57 739q0 82 27 142.5t74 101.5q-18 43 -19 94q0 92 33 164t92.5 121t141 74.5t180.5 25.5q129 0 216 -36.5t140 -94t77.5 -128t31.5 -138.5l-312 -39q-4 68 -33.5 119t-103.5 51q-47 0 -82 -23.5t-35 -78.5q0 -49 43 -87t106.5 -72t139.5 -71t139.5 -84t106.5 -110.5 t43 -149.5t-26.5 -149.5t-73.5 -104.5q8 -20 13 -39.5t5 -42.5q0 -197 -130 -294t-345 -97q-139 0 -249 50.5t-196 133.5l129 252q70 -72 149 -119t163 -47q47 0 84 21.5t37 69.5q0 39 -42 69.5t-104.5 63t-136.5 70.5t-136.5 90.5t-104.5 123t-42 168.5zM317 748 q0 -47 41 -83t107.5 -72t147.5 -76t161 -95q8 14 12.5 33.5t4.5 33.5q0 47 -42 80t-108 67t-145.5 77.5t-155.5 111.5q-14 -16 -18.5 -38.5t-4.5 -38.5z" />
<glyph unicode="&#xa8;" horiz-adv-x="1024" d="M209 1243v264h248v-264h-248zM567 1243v264h248v-264h-248z" />
<glyph unicode="&#xa9;" horiz-adv-x="1546" d="M63 717q0 154 55.5 290t152 237.5t225.5 159.5t276 58t276.5 -58t225.5 -159.5t151.5 -238t55.5 -289.5q0 -156 -55.5 -291t-151.5 -236.5t-225 -160t-277 -58.5q-147 0 -276 58.5t-225.5 160t-152 236.5t-55.5 291zM197 717q0 -127 45 -236.5t122.5 -192.5t182 -130 t225.5 -47q119 0 223.5 47t183 130t124 192.5t45.5 236.5q0 125 -45.5 235.5t-124 192.5t-183 129t-223.5 47q-121 0 -225.5 -47t-182 -129t-122.5 -192.5t-45 -235.5zM410 715q0 123 26.5 208t75.5 138t118.5 77.5t155.5 24.5q74 0 129.5 -25.5t94.5 -67.5t59.5 -96.5 t20.5 -109.5q-51 -10 -101.5 -18t-99.5 -17q-10 131 -107 132q-35 0 -62.5 -11.5t-46 -40t-27.5 -76t-9 -118.5q0 -135 53 -192.5t137 -57.5q63 0 110.5 19.5t98.5 54.5l56 -170q-57 -41 -137.5 -70t-159.5 -29q-84 0 -154 27t-122 82t-80.5 138t-28.5 198z" />
<glyph unicode="&#xaa;" horiz-adv-x="847" d="M74 897q0 72 32.5 122t87 80.5t127 44t152.5 13.5v51q0 76 -76 76q-41 0 -59.5 -23.5t-18.5 -64.5l-217 18q6 125 94.5 186.5t219.5 61.5q160 0 233.5 -64.5t73.5 -168.5v-314q0 -20 10 -30.5t27 -10.5q23 0 39 7.5t45 23.5l12 -160q-29 -29 -78 -45t-102 -16 q-47 0 -94 24.5t-62 77.5q-53 -55 -109.5 -78.5t-123.5 -23.5q-90 0 -151.5 51t-61.5 162zM309 932q0 -61 70 -62q29 0 50.5 9.5t43.5 25.5v111q-29 0 -57.5 -3t-52 -12.5t-39 -26t-15.5 -42.5z" />
<glyph unicode="&#xab;" horiz-adv-x="1284" d="M23 610l352 488h321l-319 -488l319 -483h-321zM588 610l352 488h321l-319 -488l319 -483h-321z" />
<glyph unicode="&#xac;" d="M104 543v276h877v-577h-276v301h-601z" />
<glyph unicode="&#xad;" horiz-adv-x="829" d="M121 543v276h588v-276h-588z" />
<glyph unicode="&#xae;" horiz-adv-x="1079" d="M37 940q0 111 38 207t105.5 165.5t159.5 109.5t199 40q106 0 198 -40t160 -109.5t105.5 -165.5t37.5 -207t-37.5 -207t-105.5 -165.5t-160 -109.5t-198 -40t-198.5 40t-160 109.5t-105.5 165.5t-38 207zM160 940q0 -86 28.5 -158.5t78.5 -126t120 -84t152 -30.5 t151.5 30.5t119.5 84t79 126t29 158.5t-29 158.5t-79 126t-119.5 84t-151.5 30.5t-152 -30.5t-120 -84t-78.5 -126t-28.5 -158.5zM338 666v544h197q45 0 87 -7t74.5 -25.5t52 -51.5t19.5 -84q0 -70 -21.5 -104.5t-58.5 -54.5l109 -217h-166l-88 182h-41v-182h-164zM502 977 q6 -2 15 -2h15q66 0 66 61q0 29 -14.5 40t-48.5 11h-33v-110z" />
<glyph unicode="&#xaf;" horiz-adv-x="1024" d="M205 1264v221h592v-221h-592z" />
<glyph unicode="&#xb0;" horiz-adv-x="655" d="M53 1188q0 57 21.5 107.5t58.5 87t86 58t107 21.5q57 0 107 -21.5t87 -58t58.5 -87t21.5 -107.5t-21.5 -106.5t-58.5 -86.5t-87 -58.5t-107 -21.5t-106.5 21.5t-86.5 58.5t-58.5 86.5t-21.5 106.5zM227 1188q0 -41 29 -69.5t70 -28.5t70.5 28.5t29.5 69.5t-29.5 70.5 t-70.5 29.5t-70 -29.5t-29 -70.5z" />
<glyph unicode="&#xb1;" d="M104 0v274h877v-274h-877zM104 608v277h299v241h277v-241h301v-277h-301v-248h-277v248h-299z" />
<glyph unicode="&#xb2;" horiz-adv-x="655" d="M20 1237q16 92 85 158.5t200 66.5t206 -59t75 -172q0 -66 -29 -125t-82 -115l-121 -125h248v-202h-559v155l262 289q23 25 38 49.5t15 46.5q0 68 -65 68q-33 0 -51.5 -22.5t-22.5 -57.5z" />
<glyph unicode="&#xb3;" horiz-adv-x="655" d="M27 1239q16 94 84.5 158.5t199.5 64.5q133 0 208 -58t75 -167q0 -47 -26.5 -91t-80.5 -67q68 -18 97.5 -69.5t29.5 -114.5q0 -123 -84 -179.5t-206 -56.5q-88 0 -165 26t-128 77l96 160q39 -41 84 -59.5t86 -18.5q31 0 54.5 14t23.5 49q0 66 -78 66h-86v166h88 q31 0 49.5 19.5t18.5 47.5q0 29 -15.5 47.5t-50.5 18.5q-66 0 -76 -80z" />
<glyph unicode="&#xb4;" horiz-adv-x="1024" d="M307 1212l185 324h321l-242 -324h-264z" />
<glyph unicode="&#xb6;" horiz-adv-x="1478" d="M49 958q0 246 123 361t403 115h760v-1643h-239v1364h-199v-1364h-240v666q-35 -8 -104 -8q-246 0 -375 120.5t-129 388.5zM373 936q0 -63 14 -104t42 -65t68 -33t93 -9q25 0 40 1t27 3v426h-82q-53 0 -92 -9t-63.5 -34t-35.5 -68t-11 -108z" />
<glyph unicode="&#xb7;" horiz-adv-x="493" d="M80 518v328h334v-328h-334z" />
<glyph unicode="&#xb8;" horiz-adv-x="1024" d="M156 -281l129 138q27 -33 53.5 -44.5t48.5 -11.5q35 0 52.5 16.5t17.5 57.5q0 31 -13.5 62.5t-35.5 62.5h258q29 -35 42 -84t13 -90q0 -106 -76 -176t-196 -70q-92 0 -173 37t-120 102z" />
<glyph unicode="&#xb9;" horiz-adv-x="655" d="M74 664v204h159v314l-159 -78v213l231 117h176v-566h144v-204h-551z" />
<glyph unicode="&#xba;" horiz-adv-x="847" d="M57 1071q0 205 94.5 298t270.5 93q180 0 273 -92t93 -301q0 -201 -96 -295t-270 -94t-269.5 93t-95.5 298zM311 1071q0 -121 29 -166t82 -45q55 0 84 45t29 164q0 123 -29 170t-84 47q-53 0 -82 -47t-29 -168z" />
<glyph unicode="&#xbb;" horiz-adv-x="1284" d="M23 127h321l352 483l-352 488h-321l319 -488zM588 127h321l352 483l-352 488h-321l319 -488z" />
<glyph unicode="&#xbc;" horiz-adv-x="1650" d="M59 664v204h160v314l-160 -78v213l232 117h176v-566h143v-204h-551zM248 0l911 1434h252l-913 -1434h-250zM942 133v164l258 471h318v-451h75v-184h-75v-133h-232v133h-344zM1159 317h127v224z" />
<glyph unicode="&#xbd;" horiz-adv-x="1650" d="M59 664v204h160v314l-160 -78v213l232 117h176v-566h143v-204h-551zM248 0l911 1434h252l-913 -1434h-250zM993 573q16 92 85 159t200 67t206 -59.5t75 -172.5q0 -66 -29 -124t-82 -115l-121 -125h248v-203h-559v156l262 288q23 25 38 49.5t15 47.5q0 68 -65 67 q-33 0 -51.5 -22.5t-22.5 -57.5z" />
<glyph unicode="&#xbe;" horiz-adv-x="1650" d="M23 1239q16 94 84.5 158.5t199.5 64.5q133 0 208 -58t75 -167q0 -47 -26.5 -91t-80.5 -67q68 -18 97.5 -69.5t29.5 -114.5q0 -123 -84 -179.5t-207 -56.5q-88 0 -164.5 26t-127.5 77l96 160q39 -41 84 -59.5t86 -18.5q31 0 54.5 14t23.5 49q0 66 -78 66h-86v166h88 q31 0 49 19.5t18 47.5q0 29 -15 47.5t-50 18.5q-66 0 -76 -80zM248 0l911 1434h252l-913 -1434h-250zM942 133v164l258 471h318v-451h75v-184h-75v-133h-232v133h-344zM1159 317h127v224z" />
<glyph unicode="&#xbf;" horiz-adv-x="970" d="M35 17q0 61 14.5 109t38 90t56 79t69.5 74q39 39 65.5 64.5t43 53t24 62.5t7.5 90h313q-2 -88 -10.5 -145t-31 -103.5t-61 -88.5t-100.5 -97q-39 -35 -64.5 -74t-25.5 -94q0 -41 28.5 -71.5t86.5 -30.5q66 0 100.5 44t36.5 103q78 -14 155.5 -29.5t155.5 -29.5 q-4 -84 -33.5 -155.5t-87 -124t-143.5 -81t-203 -28.5q-104 0 -185 29.5t-136.5 81t-84 121t-28.5 151.5zM342 768v328h334v-328h-334z" />
<glyph unicode="&#xc0;" horiz-adv-x="1167" d="M-25 0l416 1434h387l414 -1434h-338l-72 264h-442l-72 -264h-293zM205 1868h320l184 -324h-262zM410 537h301l-152 559z" />
<glyph unicode="&#xc1;" horiz-adv-x="1167" d="M-25 0l416 1434h387l414 -1434h-338l-72 264h-442l-72 -264h-293zM410 537h301l-152 559zM450 1544l185 324h321l-242 -324h-264z" />
<glyph unicode="&#xc2;" horiz-adv-x="1167" d="M-25 0l416 1434h387l414 -1434h-338l-72 264h-442l-72 -264h-293zM230 1544l211 324h282l211 -324h-252l-100 146l-100 -146h-252zM410 537h301l-152 559z" />
<glyph unicode="&#xc3;" horiz-adv-x="1167" d="M-25 0l416 1434h387l414 -1434h-338l-72 264h-442l-72 -264h-293zM232 1624q8 43 24.5 83t41 70t60.5 47t83 17q33 0 65.5 -9t62 -21.5t56.5 -21.5t45 -9q29 0 41 16.5t25 61.5l194 -72q-33 -117 -89 -171t-142 -54q-27 0 -55.5 10t-57.5 21.5t-54.5 21.5t-45.5 10 q-29 0 -39 -16t-23 -53zM410 537h301l-152 559z" />
<glyph unicode="&#xc4;" horiz-adv-x="1167" d="M-25 0l416 1434h387l414 -1434h-338l-72 264h-442l-72 -264h-293zM277 1573v264h248v-264h-248zM410 537h301l-152 559zM635 1573v264h248v-264h-248z" />
<glyph unicode="&#xc5;" horiz-adv-x="1167" d="M-25 0l416 1434h387l414 -1434h-338l-72 264h-442l-72 -264h-293zM349 1704q0 86 63.5 142.5t167.5 56.5t167.5 -56.5t63.5 -142.5t-63.5 -142t-167.5 -56t-167.5 56t-63.5 142zM410 537h301l-152 559zM510 1704q0 -66 70 -65q68 -1 68 65t-68 66q-70 0 -70 -66z" />
<glyph unicode="&#xc6;" horiz-adv-x="1714" d="M-82 0l756 1434h932v-293h-500v-283h475v-278h-475v-287h528v-293h-854v264h-395l-129 -264h-338zM518 537h262v536z" />
<glyph unicode="&#xc7;" horiz-adv-x="1161" d="M57 727q0 387 147.5 561t430.5 174q223 0 351 -117.5t130 -365.5l-315 -27q-4 96 -42 153.5t-126 57.5q-131 0 -186.5 -100t-55.5 -336q0 -139 23.5 -227t66.5 -139.5t101.5 -71t126.5 -19.5q100 0 187 30t165 73l35 -281q-61 -35 -133 -65.5t-166 -44.5q23 -35 33 -78 t10 -78q0 -106 -76 -176t-197 -70q-92 0 -173 37t-120 102l129 138q27 -33 53.5 -44.5t49.5 -11.5q35 0 52 16.5t17 57.5q0 27 -10 53.5t-26 53.5q-113 16 -202 67t-151.5 142.5t-95.5 224.5t-33 311z" />
<glyph unicode="&#xc8;" horiz-adv-x="1075" d="M141 0v1434h826v-293h-500v-285h475v-276h-475v-287h528v-293h-854zM205 1868h320l184 -324h-262z" />
<glyph unicode="&#xc9;" horiz-adv-x="1075" d="M141 0v1434h826v-293h-500v-285h475v-276h-475v-287h528v-293h-854zM405 1544l185 324h321l-242 -324h-264z" />
<glyph unicode="&#xca;" horiz-adv-x="1075" d="M141 0v1434h826v-293h-500v-285h475v-276h-475v-287h528v-293h-854zM201 1544l211 324h282l211 -324h-252l-100 146l-100 -146h-252z" />
<glyph unicode="&#xcb;" horiz-adv-x="1075" d="M141 0v1434h826v-293h-500v-285h475v-276h-475v-287h528v-293h-854zM250 1573v264h248v-264h-248zM608 1573v264h248v-264h-248z" />
<glyph unicode="&#xcc;" horiz-adv-x="608" d="M-64 1868h320l184 -324h-262zM141 0v1434h326v-1434h-326z" />
<glyph unicode="&#xcd;" horiz-adv-x="608" d="M141 0v1434h326v-1434h-326zM172 1544l185 324h321l-242 -324h-264z" />
<glyph unicode="&#xce;" horiz-adv-x="608" d="M-45 1544l211 324h282l211 -324h-252l-100 146l-100 -146h-252zM141 0v1434h326v-1434h-326z" />
<glyph unicode="&#xcf;" horiz-adv-x="608" d="M2 1573v264h248v-264h-248zM141 0v1434h326v-1434h-326zM360 1573v264h248v-264h-248z" />
<glyph unicode="&#xd0;" horiz-adv-x="1316" d="M4 582v274h137v578h531q287 0 437.5 -167t150.5 -530q0 -197 -40 -337t-117 -229t-186.5 -130t-250.5 -41h-525v582h-137zM467 293h188q63 0 114.5 16.5t85.5 63.5t52.5 134t18.5 226q0 127 -17.5 207t-52.5 124t-85 60.5t-116 16.5h-188v-285h252v-274h-252v-289z" />
<glyph unicode="&#xd1;" horiz-adv-x="1423" d="M141 0v1434h332l490 -869v869h319v-1434h-332l-491 850v-850h-318zM346 1622q8 43 24.5 83t41 70t60.5 47t83 17q33 0 65.5 -9t62 -21.5t56.5 -21.5t45 -9q29 0 41 16.5t25 61.5l194 -72q-33 -117 -89 -171t-142 -54q-27 0 -55.5 10t-57.5 21.5t-54.5 21.5t-45.5 10 q-29 0 -39 -16t-23 -53z" />
<glyph unicode="&#xd2;" horiz-adv-x="1275" d="M57 715q0 207 45 349t123 231t184.5 128t227.5 39q123 0 229.5 -39t184 -128t123 -231t45.5 -349t-45.5 -348.5t-124 -229.5t-185 -127t-229.5 -39q-121 0 -226.5 39t-183.5 127t-123 229.5t-45 348.5zM270 1868h320l184 -324h-262zM383 717q0 -133 19.5 -219t53 -137.5 t81 -71t100.5 -19.5q55 0 99 19.5t75 71t47 137.5t16 219t-16 220t-47 137t-75 69.5t-99 19.5q-53 0 -100.5 -19.5t-81 -69.5t-53 -137t-19.5 -220z" />
<glyph unicode="&#xd3;" horiz-adv-x="1275" d="M57 715q0 207 45 349t123 231t184.5 128t227.5 39q123 0 229.5 -39t184 -128t123 -231t45.5 -349t-45.5 -348.5t-124 -229.5t-185 -127t-229.5 -39q-121 0 -226.5 39t-183.5 127t-123 229.5t-45 348.5zM383 717q0 -133 19.5 -219t53 -137.5t81 -71t100.5 -19.5 q55 0 99 19.5t75 71t47 137.5t16 219t-16 220t-47 137t-75 69.5t-99 19.5q-53 0 -100.5 -19.5t-81 -69.5t-53 -137t-19.5 -220zM495 1544l185 324h321l-242 -324h-264z" />
<glyph unicode="&#xd4;" horiz-adv-x="1275" d="M57 715q0 207 45 349t123 231t184.5 128t227.5 39q123 0 229.5 -39t184 -128t123 -231t45.5 -349t-45.5 -348.5t-124 -229.5t-185 -127t-229.5 -39q-121 0 -226.5 39t-183.5 127t-123 229.5t-45 348.5zM287 1544l211 324h282l211 -324h-252l-100 146l-100 -146h-252z M383 717q0 -133 19.5 -219t53 -137.5t81 -71t100.5 -19.5q55 0 99 19.5t75 71t47 137.5t16 219t-16 220t-47 137t-75 69.5t-99 19.5q-53 0 -100.5 -19.5t-81 -69.5t-53 -137t-19.5 -220z" />
<glyph unicode="&#xd5;" horiz-adv-x="1275" d="M57 715q0 207 45 349t123 231t184.5 128t227.5 39q123 0 229.5 -39t184 -128t123 -231t45.5 -349t-45.5 -348.5t-124 -229.5t-185 -127t-229.5 -39q-121 0 -226.5 39t-183.5 127t-123 229.5t-45 348.5zM289 1622q8 43 24.5 83t41 70t60.5 47t83 17q33 0 65.5 -9t62 -21.5 t56.5 -21.5t45 -9q29 0 41 16.5t25 61.5l194 -72q-33 -117 -89 -171t-142 -54q-27 0 -55.5 10t-57.5 21.5t-54.5 21.5t-45.5 10q-29 0 -39 -16t-23 -53zM383 717q0 -133 19.5 -219t53 -137.5t81 -71t100.5 -19.5q55 0 99 19.5t75 71t47 137.5t16 219t-16 220t-47 137 t-75 69.5t-99 19.5q-53 0 -100.5 -19.5t-81 -69.5t-53 -137t-19.5 -220z" />
<glyph unicode="&#xd6;" horiz-adv-x="1275" d="M57 715q0 207 45 349t123 231t184.5 128t227.5 39q123 0 229.5 -39t184 -128t123 -231t45.5 -349t-45.5 -348.5t-124 -229.5t-185 -127t-229.5 -39q-121 0 -226.5 39t-183.5 127t-123 229.5t-45 348.5zM334 1573v264h248v-264h-248zM383 717q0 -133 19.5 -219t53 -137.5 t81 -71t100.5 -19.5q55 0 99 19.5t75 71t47 137.5t16 219t-16 220t-47 137t-75 69.5t-99 19.5q-53 0 -100.5 -19.5t-81 -69.5t-53 -137t-19.5 -220zM692 1573v264h248v-264h-248z" />
<glyph unicode="&#xd7;" d="M61 395l285 285l-285 285l197 196l285 -284l284 284l197 -196l-285 -285l285 -285l-197 -196l-284 284l-285 -284z" />
<glyph unicode="&#xd8;" horiz-adv-x="1275" d="M57 713q0 207 45 349t123 231t183.5 129t228.5 40q92 0 175 -22.5t153 -69.5l88 137l125 -73l-107 -166q68 -90 108 -225.5t40 -327.5q0 -207 -45.5 -348.5t-124 -229.5t-185 -127t-229.5 -39q-94 0 -177 22.5t-153 69.5l-92 -141q-29 20 -60.5 40t-60.5 38l107 170 q-68 88 -105 221t-37 322zM383 715q0 -78 6 -130.5t17 -92.5l387 606q-29 35 -70 50t-88 15q-53 0 -99.5 -20.5t-80 -70.5t-53 -137t-19.5 -220zM477 334q33 -35 72 -49.5t86 -14.5q55 0 99 19.5t76 71t48 137.5t16 219q0 63 -3 116.5t-11 94.5z" />
<glyph unicode="&#xd9;" horiz-adv-x="1347" d="M129 508v926h326v-930q0 -121 54 -177.5t165 -56.5t165 55.5t54 178.5v930h326v-926q0 -119 -31 -218.5t-97.5 -170t-170 -109.5t-246.5 -39t-245.5 39t-169 109.5t-98.5 170t-32 218.5zM307 1868h320l184 -324h-262z" />
<glyph unicode="&#xda;" horiz-adv-x="1347" d="M129 508v926h326v-930q0 -121 54 -177.5t165 -56.5t165 55.5t54 178.5v930h326v-926q0 -119 -31 -218.5t-97.5 -170t-170 -109.5t-246.5 -39t-245.5 39t-169 109.5t-98.5 170t-32 218.5zM534 1544l185 324h321l-242 -324h-264z" />
<glyph unicode="&#xdb;" horiz-adv-x="1347" d="M129 508v926h326v-930q0 -121 54 -177.5t165 -56.5t165 55.5t54 178.5v930h326v-926q0 -119 -31 -218.5t-97.5 -170t-170 -109.5t-246.5 -39t-245.5 39t-169 109.5t-98.5 170t-32 218.5zM322 1544l211 324h282l211 -324h-252l-100 146l-100 -146h-252z" />
<glyph unicode="&#xdc;" horiz-adv-x="1347" d="M129 508v926h326v-930q0 -121 54 -177.5t165 -56.5t165 55.5t54 178.5v930h326v-926q0 -119 -31 -218.5t-97.5 -170t-170 -109.5t-246.5 -39t-245.5 39t-169 109.5t-98.5 170t-32 218.5zM371 1573v264h248v-264h-248zM729 1573v264h248v-264h-248z" />
<glyph unicode="&#xdd;" horiz-adv-x="1138" d="M-23 1434h361l235 -576l238 576h350l-428 -932v-502h-325v502zM432 1566l185 324h321l-242 -324h-264z" />
<glyph unicode="&#xde;" horiz-adv-x="1161" d="M141 0v1434h326v-195h98q141 0 240.5 -22.5t162 -77t92.5 -145.5t30 -230q0 -266 -129.5 -388t-372.5 -122q-41 0 -70 3t-51 7v-264h-326zM467 539q16 -4 33.5 -6.5t50.5 -2.5q51 0 92 9.5t68.5 33t42 64.5t14.5 104q0 68 -11.5 111t-36 67.5t-63.5 34t-92 9.5h-98v-424z " />
<glyph unicode="&#xdf;" horiz-adv-x="1185" d="M121 0v1155q0 111 37 191.5t101.5 133t150.5 78t184 25.5t185 -21.5t151.5 -65.5t101.5 -112.5t37 -160.5q0 -84 -23.5 -140.5t-51 -100.5t-51 -83t-23.5 -88q0 -35 19 -62.5t49 -56t63.5 -61.5t63.5 -76t49.5 -98.5t19.5 -130.5q0 -74 -21.5 -138.5t-66.5 -112.5 t-111.5 -76t-157.5 -28q-111 0 -184.5 28t-126.5 75q27 59 54.5 117.5t56.5 115.5q31 -29 60.5 -45t76.5 -16t69.5 24.5t22.5 63.5q0 45 -39 78.5t-86 76.5t-86 108t-39 171q0 63 21.5 114.5t48 95.5t48 88t21.5 95q0 53 -36.5 88t-102.5 35q-68 0 -111.5 -41t-43.5 -115 v-1128h-330z" />
<glyph unicode="&#xe0;" horiz-adv-x="1058" d="M53 281q0 195 147.5 291t401.5 102v74q0 61 -26.5 87.5t-79.5 26.5q-115 0 -115 -125l-289 25q4 90 38 158.5t90 114.5t132 68.5t162 22.5q106 0 185 -25.5t131.5 -70.5t77 -108.5t24.5 -139.5v-473q0 -33 15.5 -49t39.5 -16q29 0 54.5 9t60.5 32l14 -226 q-41 -41 -105.5 -65.5t-136.5 -24.5q-31 0 -65.5 8.5t-65 28t-52 49t-27.5 72.5q-61 -82 -148.5 -120t-177.5 -38q-59 0 -111.5 18.5t-91.5 57.5t-60.5 97.5t-21.5 138.5zM139 1536h320l184 -324h-262zM365 336q0 -98 100 -98q41 0 71.5 15t65.5 42v176q-47 0 -90 -8 t-76 -24.5t-52 -41t-19 -61.5z" />
<glyph unicode="&#xe1;" horiz-adv-x="1058" d="M53 281q0 195 147.5 291t401.5 102v74q0 61 -26.5 87.5t-79.5 26.5q-115 0 -115 -125l-289 25q4 90 38 158.5t90 114.5t132 68.5t162 22.5q106 0 185 -25.5t131.5 -70.5t77 -108.5t24.5 -139.5v-473q0 -33 15.5 -49t39.5 -16q29 0 54.5 9t60.5 32l14 -226 q-41 -41 -105.5 -65.5t-136.5 -24.5q-31 0 -65.5 8.5t-65 28t-52 49t-27.5 72.5q-61 -82 -148.5 -120t-177.5 -38q-59 0 -111.5 18.5t-91.5 57.5t-60.5 97.5t-21.5 138.5zM365 336q0 -98 100 -98q41 0 71.5 15t65.5 42v176q-47 0 -90 -8t-76 -24.5t-52 -41t-19 -61.5z M389 1212l185 324h321l-242 -324h-264z" />
<glyph unicode="&#xe2;" horiz-adv-x="1058" d="M53 281q0 195 147.5 291t401.5 102v74q0 61 -26.5 87.5t-79.5 26.5q-115 0 -115 -125l-289 25q4 90 38 158.5t90 114.5t132 68.5t162 22.5q106 0 185 -25.5t131.5 -70.5t77 -108.5t24.5 -139.5v-473q0 -33 15.5 -49t39.5 -16q29 0 54.5 9t60.5 32l14 -226 q-41 -41 -105.5 -65.5t-136.5 -24.5q-31 0 -65.5 8.5t-65 28t-52 49t-27.5 72.5q-61 -82 -148.5 -120t-177.5 -38q-59 0 -111.5 18.5t-91.5 57.5t-60.5 97.5t-21.5 138.5zM160 1212l211 324h282l211 -324h-252l-100 146l-100 -146h-252zM365 336q0 -98 100 -98q41 0 71.5 15 t65.5 42v176q-47 0 -90 -8t-76 -24.5t-52 -41t-19 -61.5z" />
<glyph unicode="&#xe3;" horiz-adv-x="1058" d="M53 281q0 195 147.5 291t401.5 102v74q0 61 -26.5 87.5t-79.5 26.5q-115 0 -115 -125l-289 25q4 90 38 158.5t90 114.5t132 68.5t162 22.5q106 0 185 -25.5t131.5 -70.5t77 -108.5t24.5 -139.5v-473q0 -33 15.5 -49t39.5 -16q29 0 54.5 9t60.5 32l14 -226 q-41 -41 -105.5 -65.5t-136.5 -24.5q-31 0 -65.5 8.5t-65 28t-52 49t-27.5 72.5q-61 -82 -148.5 -120t-177.5 -38q-59 0 -111.5 18.5t-91.5 57.5t-60.5 97.5t-21.5 138.5zM164 1292q8 43 24.5 83t41 70t60.5 47t83 17q33 0 65.5 -9t62 -21.5t56.5 -21.5t45 -9q29 0 41 16.5 t25 61.5l194 -72q-33 -117 -89 -171t-142 -54q-27 0 -55.5 10t-57.5 21.5t-54.5 21.5t-45.5 10q-29 0 -39 -16t-23 -53zM365 336q0 -98 100 -98q41 0 71.5 15t65.5 42v176q-47 0 -90 -8t-76 -24.5t-52 -41t-19 -61.5z" />
<glyph unicode="&#xe4;" horiz-adv-x="1058" d="M53 281q0 195 147.5 291t401.5 102v74q0 61 -26.5 87.5t-79.5 26.5q-115 0 -115 -125l-289 25q4 90 38 158.5t90 114.5t132 68.5t162 22.5q106 0 185 -25.5t131.5 -70.5t77 -108.5t24.5 -139.5v-473q0 -33 15.5 -49t39.5 -16q29 0 54.5 9t60.5 32l14 -226 q-41 -41 -105.5 -65.5t-136.5 -24.5q-31 0 -65.5 8.5t-65 28t-52 49t-27.5 72.5q-61 -82 -148.5 -120t-177.5 -38q-59 0 -111.5 18.5t-91.5 57.5t-60.5 97.5t-21.5 138.5zM209 1243v264h248v-264h-248zM365 336q0 -98 100 -98q41 0 71.5 15t65.5 42v176q-47 0 -90 -8 t-76 -24.5t-52 -41t-19 -61.5zM567 1243v264h248v-264h-248z" />
<glyph unicode="&#xe5;" horiz-adv-x="1058" d="M53 281q0 195 147.5 291t401.5 102v74q0 61 -26.5 87.5t-79.5 26.5q-115 0 -115 -125l-289 25q4 90 38 158.5t90 114.5t132 68.5t162 22.5q106 0 185 -25.5t131.5 -70.5t77 -108.5t24.5 -139.5v-473q0 -33 15.5 -49t39.5 -16q29 0 54.5 9t60.5 32l14 -226 q-41 -41 -105.5 -65.5t-136.5 -24.5q-31 0 -65.5 8.5t-65 28t-52 49t-27.5 72.5q-61 -82 -148.5 -120t-177.5 -38q-59 0 -111.5 18.5t-91.5 57.5t-60.5 97.5t-21.5 138.5zM281 1374q0 86 63.5 142.5t167.5 56.5t167.5 -56.5t63.5 -142.5t-63.5 -142t-167.5 -56t-167.5 56 t-63.5 142zM365 336q0 -98 100 -98q41 0 71.5 15t65.5 42v176q-47 0 -90 -8t-76 -24.5t-52 -41t-19 -61.5zM442 1374q0 -66 70 -65q68 -1 68 65t-68 66q-70 0 -70 -66z" />
<glyph unicode="&#xe6;" horiz-adv-x="1515" d="M53 281q0 98 39 169.5t109.5 121t172 74t228.5 28.5v74q0 61 -27.5 87.5t-80.5 26.5q-113 0 -113 -127l-289 27q4 90 38 158.5t90 114.5t132 68.5t162 22.5q176 0 256 -79q43 41 108.5 60t149.5 19q113 0 192.5 -34.5t130 -98t73 -151.5t22.5 -195v-192h-549 q10 -127 64.5 -176.5t140.5 -49.5q92 0 170 32t131 69l27 -244q-43 -25 -86.5 -45.5t-90.5 -35.5t-101 -24.5t-124 -9.5q-113 0 -196.5 34t-137.5 112q-57 -66 -134 -106t-185 -40q-66 0 -124 15.5t-102.5 52.5t-70 96.5t-25.5 145.5zM365 334q0 -47 26.5 -71.5t73.5 -24.5 q51 0 87 21.5t66 51.5q-16 74 -18 160q-47 0 -90 -8t-75 -24.5t-51 -42t-19 -62.5zM897 657h242q0 111 -24.5 158t-96.5 47q-70 0 -93.5 -50t-27.5 -155z" />
<glyph unicode="&#xe7;" horiz-adv-x="987" d="M59 553q0 162 30 271.5t89.5 177t149.5 96t213 28.5q111 0 186.5 -29.5t123.5 -84t68.5 -132t20.5 -171.5l-291 -25q0 31 -4 62.5t-16.5 57t-34 42t-57.5 16.5q-37 0 -62.5 -12t-42 -47t-24 -95.5t-7.5 -158.5q0 -90 13.5 -149.5t39 -94.5t61.5 -48t83 -13q39 0 82 6 t84 17.5t78 26.5t65 34l31 -240q-59 -35 -120.5 -62.5t-133.5 -41.5q23 -35 33 -78t10 -80q0 -106 -74.5 -176t-195.5 -70q-94 0 -174 37t-119 102l127 138q27 -33 53.5 -44.5t48.5 -11.5q35 0 53.5 16.5t18.5 57.5q0 27 -10.5 52.5t-26.5 52.5q-178 27 -273.5 163 t-95.5 410z" />
<glyph unicode="&#xe8;" horiz-adv-x="1021" d="M59 541q0 307 125 446t351 139q115 0 194.5 -34.5t128.5 -98t71.5 -151.5t22.5 -195v-192h-549q10 -129 64.5 -178.5t146.5 -49.5q78 0 159 33t136 70l29 -244q-45 -25 -87 -45.5t-90 -35.5t-102.5 -24.5t-123.5 -9.5q-106 0 -193.5 32t-150 100.5t-97.5 176t-35 261.5z M174 1536h320l184 -324h-262zM403 657h242q0 111 -24.5 158t-94.5 47q-72 0 -95 -50t-28 -155z" />
<glyph unicode="&#xe9;" horiz-adv-x="1021" d="M59 541q0 307 125 446t351 139q115 0 194.5 -34.5t128.5 -98t71.5 -151.5t22.5 -195v-192h-549q10 -129 64.5 -178.5t146.5 -49.5q78 0 159 33t136 70l29 -244q-45 -25 -87 -45.5t-90 -35.5t-102.5 -24.5t-123.5 -9.5q-106 0 -193.5 32t-150 100.5t-97.5 176t-35 261.5z M385 1212l185 324h321l-242 -324h-264zM403 657h242q0 111 -24.5 158t-94.5 47q-72 0 -95 -50t-28 -155z" />
<glyph unicode="&#xea;" horiz-adv-x="1021" d="M59 541q0 307 125 446t351 139q115 0 194.5 -34.5t128.5 -98t71.5 -151.5t22.5 -195v-192h-549q10 -129 64.5 -178.5t146.5 -49.5q78 0 159 33t136 70l29 -244q-45 -25 -87 -45.5t-90 -35.5t-102.5 -24.5t-123.5 -9.5q-106 0 -193.5 32t-150 100.5t-97.5 176t-35 261.5z M168 1212l211 324h282l211 -324h-252l-100 146l-100 -146h-252zM403 657h242q0 111 -24.5 158t-94.5 47q-72 0 -95 -50t-28 -155z" />
<glyph unicode="&#xeb;" horiz-adv-x="1021" d="M59 541q0 307 125 446t351 139q115 0 194.5 -34.5t128.5 -98t71.5 -151.5t22.5 -195v-192h-549q10 -129 64.5 -178.5t146.5 -49.5q78 0 159 33t136 70l29 -244q-45 -25 -87 -45.5t-90 -35.5t-102.5 -24.5t-123.5 -9.5q-106 0 -193.5 32t-150 100.5t-97.5 176t-35 261.5z M217 1243v264h248v-264h-248zM403 657h242q0 111 -24.5 158t-94.5 47q-72 0 -95 -50t-28 -155zM575 1243v264h248v-264h-248z" />
<glyph unicode="&#xec;" horiz-adv-x="579" d="M-74 1536h320l184 -324h-262zM125 0v1096h330v-1096h-330z" />
<glyph unicode="&#xed;" horiz-adv-x="579" d="M125 0v1096h330v-1096h-330zM157 1212l185 324h321l-242 -324h-264z" />
<glyph unicode="&#xee;" horiz-adv-x="579" d="M-59 1212l211 324h282l211 -324h-252l-100 146l-100 -146h-252zM125 0v1096h330v-1096h-330z" />
<glyph unicode="&#xef;" horiz-adv-x="579" d="M-10 1243v264h248v-264h-248zM125 0v1096h330v-1096h-330zM348 1243v264h248v-264h-248z" />
<glyph unicode="&#xf0;" horiz-adv-x="1110" d="M59 547q0 301 128 440t366 139q29 0 50.5 -5t41.5 -13q-16 35 -32.5 65.5t-37.5 61.5l-346 -43v137l271 33q-33 47 -67 89t-66 77q80 2 159.5 3t159.5 5q27 -31 53.5 -64.5t51.5 -72.5q61 10 121.5 17t119.5 16v-138q-41 -4 -83 -10t-83 -12q37 -70 71 -144.5 t58.5 -160.5t39 -182.5t14.5 -209.5q0 -307 -130.5 -455.5t-365.5 -148.5q-233 0 -363.5 136.5t-130.5 439.5zM395 547q0 -90 10.5 -151.5t30 -99.5t49 -54.5t68.5 -16.5q80 0 120 70t40 250q0 182 -40 253.5t-120 71.5q-78 0 -118 -71.5t-40 -251.5z" />
<glyph unicode="&#xf1;" horiz-adv-x="1171" d="M125 0v1096h262v-119q63 59 152.5 104t205.5 45q150 0 235 -81.5t85 -266.5v-778h-330v678q0 68 -38 95.5t-97 27.5q-35 0 -74 -10.5t-71 -22.5v-768h-330zM246 1292q8 43 24.5 83t41 70t60.5 47t83 17q33 0 65.5 -9t62 -21.5t56.5 -21.5t45 -9q29 0 41 16.5t25 61.5 l194 -72q-33 -117 -89 -171t-142 -54q-27 0 -55.5 10t-57.5 21.5t-54.5 21.5t-45.5 10q-29 0 -39 -16t-23 -53z" />
<glyph unicode="&#xf2;" horiz-adv-x="1112" d="M61 547q0 301 129 440t367 139q242 0 368 -138t126 -443q0 -295 -131.5 -434.5t-362.5 -139.5q-236 0 -366 136.5t-130 439.5zM190 1536h320l184 -324h-262zM397 547q0 -180 40 -250t120 -70t119 70t39 248q0 92 -9.5 153.5t-30 97t-50 51t-68.5 15.5q-41 0 -70.5 -15.5 t-49 -51t-30 -96t-10.5 -152.5z" />
<glyph unicode="&#xf3;" horiz-adv-x="1112" d="M61 547q0 301 129 440t367 139q242 0 368 -138t126 -443q0 -295 -131.5 -434.5t-362.5 -139.5q-236 0 -366 136.5t-130 439.5zM397 547q0 -180 40 -250t120 -70t119 70t39 248q0 92 -9.5 153.5t-30 97t-50 51t-68.5 15.5q-41 0 -70.5 -15.5t-49 -51t-30 -96t-10.5 -152.5 zM407 1212l185 324h321l-242 -324h-264z" />
<glyph unicode="&#xf4;" horiz-adv-x="1112" d="M61 547q0 301 129 440t367 139q242 0 368 -138t126 -443q0 -295 -131.5 -434.5t-362.5 -139.5q-236 0 -366 136.5t-130 439.5zM205 1212l211 324h282l211 -324h-252l-100 146l-100 -146h-252zM397 547q0 -180 40 -250t120 -70t119 70t39 248q0 92 -9.5 153.5t-30 97 t-50 51t-68.5 15.5q-41 0 -70.5 -15.5t-49 -51t-30 -96t-10.5 -152.5z" />
<glyph unicode="&#xf5;" horiz-adv-x="1112" d="M61 547q0 301 129 440t367 139q242 0 368 -138t126 -443q0 -295 -131.5 -434.5t-362.5 -139.5q-236 0 -366 136.5t-130 439.5zM209 1292q8 43 24.5 83t41 70t60.5 47t83 17q33 0 65.5 -9t62 -21.5t56.5 -21.5t45 -9q29 0 41 16.5t25 61.5l194 -72q-33 -117 -89 -171 t-142 -54q-27 0 -55.5 10t-57.5 21.5t-54.5 21.5t-45.5 10q-29 0 -39 -16t-23 -53zM397 547q0 -180 40 -250t120 -70t119 70t39 248q0 92 -9.5 153.5t-30 97t-50 51t-68.5 15.5q-41 0 -70.5 -15.5t-49 -51t-30 -96t-10.5 -152.5z" />
<glyph unicode="&#xf6;" horiz-adv-x="1112" d="M61 547q0 301 129 440t367 139q242 0 368 -138t126 -443q0 -295 -131.5 -434.5t-362.5 -139.5q-236 0 -366 136.5t-130 439.5zM254 1243v264h248v-264h-248zM397 547q0 -180 40 -250t120 -70t119 70t39 248q0 92 -9.5 153.5t-30 97t-50 51t-68.5 15.5q-41 0 -70.5 -15.5 t-49 -51t-30 -96t-10.5 -152.5zM612 1243v264h248v-264h-248z" />
<glyph unicode="&#xf7;" d="M104 543v276h877v-276h-877zM393 195v278h301v-278h-301zM393 883v278h301v-278h-301z" />
<glyph unicode="&#xf8;" horiz-adv-x="1112" d="M53 0l111 143q-102 139 -103 404q0 301 129 440t367 139q190 0 305 -82l92 123l107 -69l-111 -144q100 -137 101 -409q0 -295 -131.5 -434.5t-362.5 -139.5q-190 0 -307 84l-98 -129zM397 524.5q0 -14.5 1 -30t2 -28.5t3 -17l271 352q-20 39 -49 50t-68 11 q-41 0 -70.5 -15.5t-49 -51t-30 -96t-10.5 -152.5v-22.5zM438 295q20 -37 49 -52.5t70 -15.5q80 0 119 70t39 248q0 59 -6 102z" />
<glyph unicode="&#xf9;" horiz-adv-x="1097" d="M113 373v723h329v-738q0 -131 117 -131t117 131v738h330v-723q0 -98 -35 -173t-95.5 -126t-141.5 -77t-173 -26t-174 26t-142.5 77t-96 125.5t-35.5 173.5zM182 1536h320l184 -324h-262z" />
<glyph unicode="&#xfa;" horiz-adv-x="1097" d="M113 373v723h329v-738q0 -131 117 -131t117 131v738h330v-723q0 -98 -35 -173t-95.5 -126t-141.5 -77t-173 -26t-174 26t-142.5 77t-96 125.5t-35.5 173.5zM407 1212l185 324h321l-242 -324h-264z" />
<glyph unicode="&#xfb;" horiz-adv-x="1097" d="M113 373v723h329v-738q0 -131 117 -131t117 131v738h330v-723q0 -98 -35 -173t-95.5 -126t-141.5 -77t-173 -26t-174 26t-142.5 77t-96 125.5t-35.5 173.5zM197 1212l211 324h282l211 -324h-252l-100 146l-100 -146h-252z" />
<glyph unicode="&#xfc;" horiz-adv-x="1097" d="M113 373v723h329v-738q0 -131 117 -131t117 131v738h330v-723q0 -98 -35 -173t-95.5 -126t-141.5 -77t-173 -26t-174 26t-142.5 77t-96 125.5t-35.5 173.5zM246 1243v264h248v-264h-248zM604 1243v264h248v-264h-248z" />
<glyph unicode="&#xfd;" horiz-adv-x="1026" d="M-111 -385l78 264q35 -20 82 -31.5t88 -11.5q45 0 77 11.5t56.5 37t45 68.5t46.5 106l-391 1037h346l203 -664l195 664h319l-348 -1035q-43 -125 -91 -220t-109.5 -158.5t-141.5 -95t-186 -31.5q-61 0 -131 14t-138 45zM383 1212l185 324h321l-242 -324h-264z" />
<glyph unicode="&#xfe;" horiz-adv-x="1163" d="M125 -471v1966l330 41v-512q53 41 120.5 71.5t155.5 30.5q80 0 147.5 -24.5t116.5 -87t78 -171t29 -276.5q0 -164 -35 -277.5t-96.5 -184t-147.5 -102.5t-190 -32q-39 0 -89 8.5t-89 22.5v-416zM455 272q68 -33 135 -32q35 0 64.5 13t52 50t35 100.5t12.5 163.5 q0 92 -12.5 144.5t-34 80t-51 35t-62.5 7.5q-39 0 -70.5 -8.5t-68.5 -24.5v-529z" />
<glyph unicode="&#xff;" horiz-adv-x="1026" d="M-111 -385l78 264q35 -20 82 -31.5t88 -11.5q45 0 77 11.5t56.5 37t45 68.5t46.5 106l-391 1037h346l203 -664l195 664h319l-348 -1035q-43 -125 -91 -220t-109.5 -158.5t-141.5 -95t-186 -31.5q-61 0 -131 14t-138 45zM217 1243v264h248v-264h-248zM575 1243v264h248 v-264h-248z" />
<glyph unicode="&#x152;" horiz-adv-x="1855" d="M57 715q0 207 45 349t123 231t184.5 128t227.5 39q115 0 196.5 -36.5t122.5 -108.5v117h791v-293h-500v-285h475v-276h-475v-287h529v-293h-820v119q-43 -72 -130 -110t-191 -38q-121 0 -226.5 39t-183.5 127t-123 229.5t-45 348.5zM383 717q0 -133 19.5 -219t53 -137.5 t81 -71t100.5 -19.5q55 0 99 19.5t75 71t47 137.5t16 219t-16 220t-47 137t-75 69.5t-99 19.5q-53 0 -100.5 -19.5t-81 -69.5t-53 -137t-19.5 -220z" />
<glyph unicode="&#x153;" horiz-adv-x="1665" d="M59 547q0 301 129 439t367 138q117 0 193.5 -31.5t123.5 -103.5q90 137 306 137q115 0 194.5 -34.5t129.5 -98t72.5 -150.5t22.5 -194v-174h-550q6 -139 62 -193.5t148 -54.5q78 0 159 33t136 70l29 -242q-43 -25 -86 -46.5t-90 -36.5t-102.5 -24.5t-124.5 -9.5 q-109 0 -183.5 34t-122.5 108q-94 -141 -317 -142q-236 0 -366 136.5t-130 439.5zM395 547q0 -180 40 -250t120 -70t119 70t39 248q0 184 -39 254.5t-119 70.5t-120 -70.5t-40 -252.5zM1049 657h239q0 111 -24.5 158t-94.5 47q-72 0 -95 -50t-25 -155z" />
<glyph unicode="&#x178;" horiz-adv-x="1138" d="M-23 1434h361l235 -576l238 576h350l-428 -932v-502h-325v502zM270 1575v264h248v-264h-248zM628 1575v264h248v-264h-248z" />
<glyph unicode="&#x2c6;" horiz-adv-x="1024" d="M160 1212l211 324h282l211 -324h-252l-100 146l-100 -146h-252z" />
<glyph unicode="&#x2dc;" horiz-adv-x="1024" d="M164 1292q8 43 24.5 83t41 70t60.5 47t83 17q33 0 65.5 -9t62 -21.5t56.5 -21.5t45 -9q29 0 41 16.5t25 61.5l194 -72q-33 -117 -89 -171t-142 -54q-27 0 -55.5 10t-57.5 21.5t-54.5 21.5t-45.5 10q-29 0 -39 -16t-23 -53z" />
<glyph unicode="&#x2000;" horiz-adv-x="951" />
<glyph unicode="&#x2001;" horiz-adv-x="1903" />
<glyph unicode="&#x2002;" horiz-adv-x="951" />
<glyph unicode="&#x2003;" horiz-adv-x="1903" />
<glyph unicode="&#x2004;" horiz-adv-x="634" />
<glyph unicode="&#x2005;" horiz-adv-x="475" />
<glyph unicode="&#x2006;" horiz-adv-x="317" />
<glyph unicode="&#x2007;" horiz-adv-x="317" />
<glyph unicode="&#x2008;" horiz-adv-x="237" />
<glyph unicode="&#x2009;" horiz-adv-x="380" />
<glyph unicode="&#x200a;" horiz-adv-x="105" />
<glyph unicode="&#x2010;" horiz-adv-x="829" d="M121 543v276h588v-276h-588z" />
<glyph unicode="&#x2011;" horiz-adv-x="829" d="M121 543v276h588v-276h-588z" />
<glyph unicode="&#x2012;" horiz-adv-x="829" d="M121 543v276h588v-276h-588z" />
<glyph unicode="&#x2013;" horiz-adv-x="1116" d="M121 543v276h874v-276h-874z" />
<glyph unicode="&#x2014;" horiz-adv-x="1892" d="M121 543v276h1651v-276h-1651z" />
<glyph unicode="&#x2018;" horiz-adv-x="493" d="M43 948l156 486h252l-88 -486h-320z" />
<glyph unicode="&#x2019;" horiz-adv-x="493" d="M43 948l88 486h320l-156 -486h-252z" />
<glyph unicode="&#x201a;" horiz-adv-x="493" d="M43 -324l88 486h320l-156 -486h-252z" />
<glyph unicode="&#x201c;" horiz-adv-x="940" d="M6 948l227 486h254l-159 -486h-322zM494 948l155 486h252l-86 -486h-321z" />
<glyph unicode="&#x201d;" horiz-adv-x="940" d="M39 948l86 486h321l-155 -486h-252zM453 948l159 486h322l-229 -486h-252z" />
<glyph unicode="&#x201e;" horiz-adv-x="940" d="M39 -326l86 486h321l-155 -486h-252zM453 -326l159 486h322l-229 -486h-252z" />
<glyph unicode="&#x2022;" horiz-adv-x="786" d="M86 682q0 63 23.5 119.5t65.5 97.5t97.5 65.5t120.5 24.5q63 0 119.5 -24.5t97.5 -65.5t65.5 -97.5t24.5 -119.5t-24.5 -119.5t-65.5 -97.5t-97 -65.5t-120 -24.5q-66 0 -121 24.5t-97 65.5t-65.5 97.5t-23.5 119.5z" />
<glyph unicode="&#x2026;" horiz-adv-x="1609" d="M80 0v328h334v-328h-334zM637 0v328h334v-328h-334zM1196 0v328h334v-328h-334z" />
<glyph unicode="&#x202f;" horiz-adv-x="380" />
<glyph unicode="&#x2039;" horiz-adv-x="718" d="M23 610l352 488h321l-319 -488l319 -483h-321z" />
<glyph unicode="&#x203a;" horiz-adv-x="718" d="M23 127h321l352 483l-352 488h-321l319 -488z" />
<glyph unicode="&#x205f;" horiz-adv-x="475" />
<glyph unicode="&#x20ac;" d="M4 471v172h115q-2 16 -2 29.5v23.5v45h-113v172h121q14 143 48 247t92.5 171.5t146.5 99t211 31.5q211 0 327.5 -106.5t134.5 -315.5l-319 -34q-6 29 -15.5 57.5t-23.5 50t-38.5 34.5t-61.5 13q-88 0 -124 -64.5t-46 -183.5h403l-33 -172h-376v-43q0 -14 1 -26.5t3 -28.5 h354l-31 -172h-299q18 -111 70.5 -156t150.5 -45q100 0 178 30t152 71l37 -281q-41 -23 -84 -44t-93 -37.5t-108.5 -27t-132.5 -10.5q-115 0 -202 29t-149 89.5t-102 154.5t-61 227h-131z" />
<glyph unicode="&#x2122;" horiz-adv-x="1767" d="M23 1241v193h645v-193h-209v-534h-232v534h-204zM692 707l94 727h287l129 -412l127 412h291l88 -727h-240l-45 423l-116 -366h-215l-117 366l-43 -423h-240z" />
<glyph unicode="&#xe000;" horiz-adv-x="1095" d="M0 0v1096h1096v-1096h-1096z" />
<glyph unicode="&#xfb03;" horiz-adv-x="1841" d="M-74 -379l31 258q29 -10 56.5 -18t56.5 -8q37 0 63.5 22.5t26.5 77.5v889h-135v254h135v71q0 111 33.5 189t93 127t140.5 72.5t175 23.5q35 0 63.5 -2t63.5 -8l-22 -266q-37 10 -70 10q-63 0 -105.5 -29t-42.5 -104v-84h285v71q0 109 33 188t91 129t138 73.5t174 23.5 q45 0 70 -2t63 -10l-24 -266q-37 10 -68 10q-66 0 -106.5 -29t-40.5 -104v-84h612v-1096h-330v842h-282v-936q0 -178 -92 -259t-234 -81q-51 0 -102 11t-101 30l33 264q20 -8 39 -13t39 -5q37 0 62.5 22.5t25.5 77.5v889h-285v-936q0 -178 -91 -259t-232 -81 q-61 0 -122.5 14t-117.5 41zM1386 1227v289h330v-289h-330z" />
<glyph unicode="&#xfb04;" horiz-adv-x="1882" d="M-74 -379l31 258q29 -10 56.5 -18t56.5 -8q37 0 63.5 22.5t26.5 77.5v889h-135v254h135v71q0 111 33.5 189t93 127t140.5 72.5t175 23.5q35 0 63.5 -2t63.5 -8l-22 -266q-37 10 -70 10q-63 0 -105.5 -29t-42.5 -104v-84h285v71q0 109 33 188t91 129t138 73.5t174 23.5 q45 0 72 -3t61 -9l-24 -266q-37 10 -68 10q-61 0 -104 -32t-43 -101v-84h203l-21 -254h-182v-916q0 -100 -25.5 -168.5t-71.5 -110.5t-109.5 -60.5t-137.5 -18.5q-90 0 -185 39l33 264q20 -8 39 -13t39 -5q37 0 62.5 22.5t25.5 77.5v889h-285v-938q0 -90 -24.5 -153.5 t-67.5 -104.5t-102 -60.5t-129 -19.5q-59 0 -121.5 13t-118.5 42zM1382 324v1171l330 41v-1184q0 -45 21.5 -63.5t56.5 -18.5q31 0 52.5 6.5t47.5 18.5l8 -266q-59 -35 -113 -46.5t-120 -11.5q-147 0 -215 91.5t-68 261.5z" />
</font>
</defs>
</svg>
